<svg xmlns="http://www.w3.org/2000/svg" viewBox="0 0 800 500" role="img" aria-label="Abstract gridded dot motif of a global resilience assessment"><rect width="800" height="500" fill="#f6f4ee"/><circle cx="80" cy="70" r="10.7" fill="#b45309" opacity="0.53"/><circle cx="170" cy="70" r="9.2" fill="#b45309" opacity="0.41"/><circle cx="215" cy="70" r="4.8" fill="#0e7570" opacity="0.54"/><circle cx="260" cy="70" r="4.0" fill="#0e7570" opacity="0.52"/><circle cx="350" cy="70" r="9.5" fill="#b45309" opacity="0.70"/><circle cx="395" cy="70" r="4.5" fill="#0e7570" opacity="0.30"/><circle cx="485" cy="70" r="11.1" fill="#0e7570" opacity="0.84"/><circle cx="530" cy="70" r="3.4" fill="#0e7570" opacity="0.54"/><circle cx="575" cy="70" r="3.0" fill="#b45309" opacity="0.49"/><circle cx="620" cy="70" r="9.1" fill="#b45309" opacity="0.63"/><circle cx="665" cy="70" r="7.4" fill="#0e7570" opacity="0.31"/><circle cx="80" cy="115" r="4.3" fill="#0e7570" opacity="0.60"/><circle cx="125" cy="115" r="12.5" fill="#0e7570" opacity="0.60"/><circle cx="170" cy="115" r="3.6" fill="#b45309" opacity="0.51"/><circle cx="305" cy="115" r="4.4" fill="#0e7570" opacity="0.57"/><circle cx="350" cy="115" r="7.8" fill="#0e7570" opacity="0.62"/><circle cx="395" cy="115" r="9.8" fill="#b45309" opacity="0.74"/><circle cx="440" cy="115" r="9.5" fill="#b45309" opacity="0.34"/><circle cx="485" cy="115" r="7.6" fill="#0e7570" opacity="0.46"/><circle cx="530" cy="115" r="9.7" fill="#0e7570" opacity="0.80"/><circle cx="575" cy="115" r="3.2" fill="#0e7570" opacity="0.58"/><circle cx="620" cy="115" r="9.2" fill="#b45309" opacity="0.33"/><circle cx="665" cy="115" r="5.2" fill="#0e7570" opacity="0.72"/><circle cx="710" cy="115" r="12.6" fill="#0e7570" opacity="0.82"/><circle cx="80" cy="160" r="9.9" fill="#b45309" opacity="0.76"/><circle cx="125" cy="160" r="9.2" fill="#0e7570" opacity="0.66"/><circle cx="170" cy="160" r="12.6" fill="#0e7570" opacity="0.76"/><circle cx="215" cy="160" r="4.0" fill="#0e7570" opacity="0.79"/><circle cx="260" cy="160" r="5.9" fill="#0e7570" opacity="0.47"/><circle cx="350" cy="160" r="7.5" fill="#0e7570" opacity="0.76"/><circle cx="395" cy="160" r="12.3" fill="#0e7570" opacity="0.61"/><circle cx="440" cy="160" r="3.3" fill="#0e7570" opacity="0.47"/><circle cx="485" cy="160" r="8.6" fill="#0e7570" opacity="0.34"/><circle cx="530" cy="160" r="11.9" fill="#0e7570" opacity="0.34"/><circle cx="575" cy="160" r="5.5" fill="#0e7570" opacity="0.84"/><circle cx="665" cy="160" r="3.6" fill="#0e7570" opacity="0.52"/><circle cx="710" cy="160" r="6.3" fill="#b45309" opacity="0.42"/><circle cx="80" cy="205" r="8.2" fill="#0e7570" opacity="0.55"/><circle cx="125" cy="205" r="4.0" fill="#0e7570" opacity="0.32"/><circle cx="170" cy="205" r="4.6" fill="#0e7570" opacity="0.52"/><circle cx="215" cy="205" r="4.4" fill="#b45309" opacity="0.59"/><circle cx="305" cy="205" r="5.3" fill="#b45309" opacity="0.62"/><circle cx="350" cy="205" r="9.0" fill="#0e7570" opacity="0.69"/><circle cx="395" cy="205" r="12.1" fill="#0e7570" opacity="0.56"/><circle cx="440" cy="205" r="5.0" fill="#b45309" opacity="0.54"/><circle cx="485" cy="205" r="9.2" fill="#0e7570" opacity="0.30"/><circle cx="530" cy="205" r="11.7" fill="#0e7570" opacity="0.77"/><circle cx="575" cy="205" r="9.5" fill="#0e7570" opacity="0.70"/><circle cx="620" cy="205" r="8.5" fill="#0e7570" opacity="0.68"/><circle cx="125" cy="250" r="8.5" fill="#0e7570" opacity="0.42"/><circle cx="170" cy="250" r="3.3" fill="#0e7570" opacity="0.69"/><circle cx="215" cy="250" r="8.7" fill="#b45309" opacity="0.81"/><circle cx="260" cy="250" r="5.6" fill="#0e7570" opacity="0.46"/><circle cx="305" cy="250" r="8.1" fill="#0e7570" opacity="0.82"/><circle cx="350" cy="250" r="9.0" fill="#0e7570" opacity="0.77"/><circle cx="395" cy="250" r="6.3" fill="#b45309" opacity="0.58"/><circle cx="440" cy="250" r="8.0" fill="#0e7570" opacity="0.61"/><circle cx="485" cy="250" r="8.0" fill="#0e7570" opacity="0.68"/><circle cx="530" cy="250" r="4.4" fill="#0e7570" opacity="0.73"/><circle cx="575" cy="250" r="4.6" fill="#0e7570" opacity="0.52"/><circle cx="620" cy="250" r="10.3" fill="#0e7570" opacity="0.53"/><circle cx="665" cy="250" r="10.0" fill="#0e7570" opacity="0.82"/><circle cx="710" cy="250" r="7.6" fill="#0e7570" opacity="0.35"/><circle cx="80" cy="295" r="3.2" fill="#0e7570" opacity="0.34"/><circle cx="125" cy="295" r="9.8" fill="#b45309" opacity="0.64"/><circle cx="170" cy="295" r="10.5" fill="#0e7570" opacity="0.76"/><circle cx="215" cy="295" r="9.4" fill="#0e7570" opacity="0.38"/><circle cx="260" cy="295" r="8.6" fill="#0e7570" opacity="0.41"/><circle cx="305" cy="295" r="6.6" fill="#0e7570" opacity="0.38"/><circle cx="395" cy="295" r="3.9" fill="#0e7570" opacity="0.45"/><circle cx="440" cy="295" r="7.6" fill="#b45309" opacity="0.46"/><circle cx="485" cy="295" r="11.0" fill="#b45309" opacity="0.55"/><circle cx="530" cy="295" r="5.8" fill="#0e7570" opacity="0.66"/><circle cx="575" cy="295" r="9.3" fill="#0e7570" opacity="0.65"/><circle cx="665" cy="295" r="7.3" fill="#b45309" opacity="0.50"/><circle cx="710" cy="295" r="8.8" fill="#b45309" opacity="0.66"/><circle cx="125" cy="340" r="10.5" fill="#b45309" opacity="0.83"/><circle cx="170" cy="340" r="11.1" fill="#0e7570" opacity="0.52"/><circle cx="215" cy="340" r="5.1" fill="#0e7570" opacity="0.38"/><circle cx="260" cy="340" r="9.6" fill="#b45309" opacity="0.38"/><circle cx="305" cy="340" r="4.3" fill="#0e7570" opacity="0.39"/><circle cx="440" cy="340" r="4.2" fill="#0e7570" opacity="0.80"/><circle cx="485" cy="340" r="11.3" fill="#0e7570" opacity="0.37"/><circle cx="575" cy="340" r="4.3" fill="#0e7570" opacity="0.48"/><circle cx="620" cy="340" r="8.4" fill="#0e7570" opacity="0.83"/><circle cx="710" cy="340" r="11.3" fill="#b45309" opacity="0.56"/><circle cx="125" cy="385" r="7.5" fill="#0e7570" opacity="0.41"/><circle cx="170" cy="385" r="8.3" fill="#0e7570" opacity="0.31"/><circle cx="260" cy="385" r="3.8" fill="#b45309" opacity="0.59"/><circle cx="305" cy="385" r="9.2" fill="#0e7570" opacity="0.36"/><circle cx="395" cy="385" r="6.9" fill="#0e7570" opacity="0.51"/><circle cx="440" cy="385" r="5.3" fill="#0e7570" opacity="0.78"/><circle cx="530" cy="385" r="3.6" fill="#b45309" opacity="0.53"/><circle cx="575" cy="385" r="5.7" fill="#0e7570" opacity="0.46"/><circle cx="620" cy="385" r="11.2" fill="#0e7570" opacity="0.35"/><circle cx="665" cy="385" r="6.2" fill="#0e7570" opacity="0.43"/><circle cx="80" cy="430" r="6.6" fill="#0e7570" opacity="0.44"/><circle cx="125" cy="430" r="5.7" fill="#b45309" opacity="0.50"/><circle cx="170" cy="430" r="9.7" fill="#0e7570" opacity="0.60"/><circle cx="215" cy="430" r="8.7" fill="#0e7570" opacity="0.79"/><circle cx="260" cy="430" r="10.9" fill="#b45309" opacity="0.69"/><circle cx="305" cy="430" r="7.2" fill="#0e7570" opacity="0.79"/><circle cx="350" cy="430" r="5.0" fill="#0e7570" opacity="0.48"/><circle cx="395" cy="430" r="10.7" fill="#0e7570" opacity="0.84"/><circle cx="440" cy="430" r="9.4" fill="#0e7570" opacity="0.82"/><circle cx="485" cy="430" r="11.0" fill="#0e7570" opacity="0.76"/><circle cx="530" cy="430" r="5.6" fill="#b45309" opacity="0.33"/><circle cx="575" cy="430" r="6.1" fill="#0e7570" opacity="0.50"/><circle cx="620" cy="430" r="7.1" fill="#0e7570" opacity="0.69"/><circle cx="665" cy="430" r="6.4" fill="#b45309" opacity="0.71"/><circle cx="710" cy="430" r="5.3" fill="#b45309" opacity="0.50"/></svg>