<svg xmlns="http://www.w3.org/2000/svg" viewBox="0 0 800 500" role="img" aria-label="Abstract coastal flood motif with building outlines"><rect width="800" height="500" fill="#f6f4ee"/><polyline points="0,300 40,310 80,300 120,310 160,300 200,310 240,300 280,310 320,300 360,310 400,300 440,310 480,300 520,310 560,300 600,310 640,300 680,310 720,300 760,310 800,300" fill="none" stroke="#0e7570" stroke-width="2.5" opacity="0.80"/><polyline points="0,344 40,334 80,344 120,334 160,344 200,334 240,344 280,334 320,344 360,334 400,344 440,334 480,344 520,334 560,344 600,334 640,344 680,334 720,344 760,334 800,344" fill="none" stroke="#0e7570" stroke-width="2.5" opacity="0.68"/><polyline points="0,368 40,378 80,368 120,378 160,368 200,378 240,368 280,378 320,368 360,378 400,368 440,378 480,368 520,378 560,368 600,378 640,368 680,378 720,368 760,378 800,368" fill="none" stroke="#0e7570" stroke-width="2.5" opacity="0.56"/><polyline points="0,412 40,402 80,412 120,402 160,412 200,402 240,412 280,402 320,412 360,402 400,412 440,402 480,412 520,402 560,412 600,402 640,412 680,402 720,412 760,402 800,412" fill="none" stroke="#0e7570" stroke-width="2.5" opacity="0.44"/><polyline points="0,436 40,446 80,436 120,446 160,436 200,446 240,436 280,446 320,436 360,446 400,436 440,446 480,436 520,446 560,436 600,446 640,436 680,446 720,436 760,446 800,436" fill="none" stroke="#0e7570" stroke-width="2.5" opacity="0.32"/><rect x="80" y="121" width="52" height="171" fill="none" stroke="#22272e" stroke-width="1.6" opacity="0.7"/><rect x="148" y="226" width="49" height="66" fill="none" stroke="#22272e" stroke-width="1.6" opacity="0.7"/><rect x="223" y="192" width="43" height="100" fill="none" stroke="#22272e" stroke-width="1.6" opacity="0.7"/><rect x="297" y="212" width="40" height="80" fill="none" stroke="#22272e" stroke-width="1.6" opacity="0.7"/><rect x="356" y="170" width="61" height="122" fill="none" stroke="#22272e" stroke-width="1.6" opacity="0.7"/><rect x="444" y="202" width="63" height="90" fill="none" stroke="#22272e" stroke-width="1.6" opacity="0.7"/><rect x="530" y="130" width="43" height="162" fill="none" stroke="#22272e" stroke-width="1.6" opacity="0.7"/><rect x="587" y="187" width="59" height="105" fill="none" stroke="#22272e" stroke-width="1.6" opacity="0.7"/><rect x="672" y="111" width="43" height="181" fill="none" stroke="#22272e" stroke-width="1.6" opacity="0.7"/></svg>