<svg xmlns="http://www.w3.org/2000/svg" viewBox="0 0 800 500" role="img" aria-label="Abstract motif of compound heat and pollution exposure"><rect width="800" height="500" fill="#f6f4ee"/><rect x="40" y="40" width="34" height="28" fill="none" stroke="#22272e" stroke-width="1.4" opacity="0.66"/><rect x="120" y="40" width="32" height="32" fill="none" stroke="#22272e" stroke-width="1.4" opacity="0.73"/><rect x="160" y="40" width="24" height="36" fill="none" stroke="#22272e" stroke-width="1.4" opacity="0.67"/><rect x="200" y="40" width="32" height="24" fill="none" stroke="#22272e" stroke-width="1.4" opacity="0.48"/><rect x="240" y="40" width="25" height="24" fill="none" stroke="#22272e" stroke-width="1.4" opacity="0.55"/><rect x="280" y="40" width="26" height="31" fill="none" stroke="#22272e" stroke-width="1.4" opacity="0.79"/><rect x="320" y="40" width="26" height="23" fill="none" stroke="#22272e" stroke-width="1.4" opacity="0.64"/><rect x="360" y="40" width="28" height="25" fill="none" stroke="#22272e" stroke-width="1.4" opacity="0.69"/><rect x="400" y="40" width="28" height="34" fill="none" stroke="#22272e" stroke-width="1.4" opacity="0.42"/><rect x="440" y="40" width="35" height="25" fill="none" stroke="#22272e" stroke-width="1.4" opacity="0.37"/><rect x="480" y="40" width="31" height="33" fill="none" stroke="#22272e" stroke-width="1.4" opacity="0.33"/><rect x="520" y="40" width="28" height="27" fill="none" stroke="#22272e" stroke-width="1.4" opacity="0.42"/><rect x="560" y="40" width="24" height="35" fill="none" stroke="#22272e" stroke-width="1.4" opacity="0.40"/><rect x="600" y="40" width="31" height="31" fill="none" stroke="#22272e" stroke-width="1.4" opacity="0.54"/><rect x="640" y="40" width="35" height="24" fill="none" stroke="#22272e" stroke-width="1.4" opacity="0.40"/><rect x="680" y="40" width="32" height="28" fill="none" stroke="#22272e" stroke-width="1.4" opacity="0.49"/><rect x="720" y="40" width="24" height="31" fill="none" stroke="#22272e" stroke-width="1.4" opacity="0.41"/><rect x="760" y="40" width="25" height="26" fill="none" stroke="#22272e" stroke-width="1.4" opacity="0.40"/><rect x="80" y="80" width="29" height="25" fill="none" stroke="#22272e" stroke-width="1.4" opacity="0.72"/><rect x="120" y="80" width="24" height="25" fill="none" stroke="#22272e" stroke-width="1.4" opacity="0.78"/><rect x="160" y="80" width="28" height="23" fill="none" stroke="#22272e" stroke-width="1.4" opacity="0.74"/><rect x="200" y="80" width="30" height="32" fill="none" stroke="#22272e" stroke-width="1.4" opacity="0.57"/><rect x="240" y="80" width="26" height="32" fill="none" stroke="#22272e" stroke-width="1.4" opacity="0.43"/><rect x="280" y="80" width="35" height="35" fill="none" stroke="#22272e" stroke-width="1.4" opacity="0.64"/><rect x="320" y="80" width="24" height="33" fill="none" stroke="#22272e" stroke-width="1.4" opacity="0.76"/><rect x="360" y="80" width="23" height="29" fill="none" stroke="#22272e" stroke-width="1.4" opacity="0.52"/><rect x="440" y="80" width="28" height="29" fill="none" stroke="#22272e" stroke-width="1.4" opacity="0.54"/><rect x="480" y="80" width="31" height="31" fill="none" stroke="#22272e" stroke-width="1.4" opacity="0.41"/><rect x="520" y="80" width="23" height="26" fill="none" stroke="#22272e" stroke-width="1.4" opacity="0.58"/><rect x="560" y="80" width="30" height="26" fill="none" stroke="#22272e" stroke-width="1.4" opacity="0.47"/><rect x="600" y="80" width="27" height="30" fill="none" stroke="#22272e" stroke-width="1.4" opacity="0.32"/><rect x="720" y="80" width="30" height="33" fill="none" stroke="#22272e" stroke-width="1.4" opacity="0.63"/><rect x="760" y="80" width="29" height="29" fill="none" stroke="#22272e" stroke-width="1.4" opacity="0.48"/><rect x="40" y="120" width="33" height="31" fill="none" stroke="#22272e" stroke-width="1.4" opacity="0.30"/><rect x="80" y="120" width="36" height="28" fill="none" stroke="#22272e" stroke-width="1.4" opacity="0.76"/><rect x="120" y="120" width="31" height="33" fill="none" stroke="#22272e" stroke-width="1.4" opacity="0.50"/><rect x="160" y="120" width="24" height="30" fill="none" stroke="#22272e" stroke-width="1.4" opacity="0.45"/><rect x="200" y="120" width="31" height="25" fill="none" stroke="#22272e" stroke-width="1.4" opacity="0.50"/><rect x="240" y="120" width="31" height="32" fill="none" stroke="#22272e" stroke-width="1.4" opacity="0.45"/><rect x="280" y="120" width="31" height="28" fill="none" stroke="#22272e" stroke-width="1.4" opacity="0.71"/><rect x="320" y="120" width="28" height="28" fill="none" stroke="#22272e" stroke-width="1.4" opacity="0.59"/><rect x="360" y="120" width="29" height="30" fill="none" stroke="#22272e" stroke-width="1.4" opacity="0.49"/><rect x="400" y="120" width="29" height="24" fill="none" stroke="#22272e" stroke-width="1.4" opacity="0.62"/><rect x="440" y="120" width="27" height="30" fill="none" stroke="#22272e" stroke-width="1.4" opacity="0.74"/><rect x="480" y="120" width="28" height="31" fill="none" stroke="#22272e" stroke-width="1.4" opacity="0.73"/><rect x="520" y="120" width="36" height="23" fill="none" stroke="#22272e" stroke-width="1.4" opacity="0.57"/><rect x="560" y="120" width="27" height="26" fill="none" stroke="#22272e" stroke-width="1.4" opacity="0.60"/><rect x="600" y="120" width="31" height="23" fill="none" stroke="#22272e" stroke-width="1.4" opacity="0.53"/><rect x="680" y="120" width="26" height="27" fill="none" stroke="#22272e" stroke-width="1.4" opacity="0.61"/><rect x="720" y="120" width="24" height="22" fill="none" stroke="#22272e" stroke-width="1.4" opacity="0.37"/><rect x="760" y="120" width="23" height="27" fill="none" stroke="#22272e" stroke-width="1.4" opacity="0.44"/><rect x="40" y="160" width="34" height="23" fill="none" stroke="#22272e" stroke-width="1.4" opacity="0.37"/><rect x="80" y="160" width="24" height="29" fill="none" stroke="#22272e" stroke-width="1.4" opacity="0.77"/><rect x="120" y="160" width="32" height="29" fill="none" stroke="#22272e" stroke-width="1.4" opacity="0.76"/><rect x="160" y="160" width="31" height="24" fill="none" stroke="#22272e" stroke-width="1.4" opacity="0.49"/><rect x="200" y="160" width="29" height="31" fill="none" stroke="#22272e" stroke-width="1.4" opacity="0.40"/><rect x="240" y="160" width="32" height="27" fill="none" stroke="#22272e" stroke-width="1.4" opacity="0.77"/><rect x="280" y="160" width="27" height="36" fill="none" stroke="#22272e" stroke-width="1.4" opacity="0.78"/><rect x="320" y="160" width="24" height="27" fill="none" stroke="#22272e" stroke-width="1.4" opacity="0.50"/><rect x="360" y="160" width="28" height="27" fill="none" stroke="#22272e" stroke-width="1.4" opacity="0.74"/><rect x="400" y="160" width="34" height="27" fill="none" stroke="#22272e" stroke-width="1.4" opacity="0.79"/><rect x="520" y="160" width="34" height="24" fill="none" stroke="#22272e" stroke-width="1.4" opacity="0.47"/><rect x="560" y="160" width="23" height="35" fill="none" stroke="#22272e" stroke-width="1.4" opacity="0.49"/><rect x="600" y="160" width="34" height="33" fill="none" stroke="#22272e" stroke-width="1.4" opacity="0.61"/><rect x="640" y="160" width="24" height="24" fill="none" stroke="#22272e" stroke-width="1.4" opacity="0.61"/><rect x="720" y="160" width="26" height="24" fill="none" stroke="#22272e" stroke-width="1.4" opacity="0.72"/><rect x="760" y="160" width="29" height="30" fill="none" stroke="#22272e" stroke-width="1.4" opacity="0.33"/><rect x="40" y="200" width="36" height="22" fill="none" stroke="#22272e" stroke-width="1.4" opacity="0.70"/><rect x="80" y="200" width="32" height="24" fill="none" stroke="#22272e" stroke-width="1.4" opacity="0.35"/><rect x="120" y="200" width="35" height="29" fill="none" stroke="#22272e" stroke-width="1.4" opacity="0.75"/><rect x="160" y="200" width="34" height="30" fill="none" stroke="#22272e" stroke-width="1.4" opacity="0.74"/><rect x="200" y="200" width="28" height="28" fill="none" stroke="#22272e" stroke-width="1.4" opacity="0.72"/><rect x="240" y="200" width="29" height="23" fill="none" stroke="#22272e" stroke-width="1.4" opacity="0.72"/><rect x="280" y="200" width="34" height="27" fill="none" stroke="#22272e" stroke-width="1.4" opacity="0.52"/><rect x="320" y="200" width="31" height="25" fill="none" stroke="#22272e" stroke-width="1.4" opacity="0.33"/><rect x="360" y="200" width="23" height="29" fill="none" stroke="#22272e" stroke-width="1.4" opacity="0.37"/><rect x="400" y="200" width="30" height="24" fill="none" stroke="#22272e" stroke-width="1.4" opacity="0.70"/><rect x="440" y="200" width="35" height="26" fill="none" stroke="#22272e" stroke-width="1.4" opacity="0.55"/><rect x="480" y="200" width="32" height="27" fill="none" stroke="#22272e" stroke-width="1.4" opacity="0.59"/><rect x="520" y="200" width="25" height="35" fill="none" stroke="#22272e" stroke-width="1.4" opacity="0.46"/><rect x="600" y="200" width="28" height="27" fill="none" stroke="#22272e" stroke-width="1.4" opacity="0.43"/><rect x="640" y="200" width="26" height="35" fill="none" stroke="#22272e" stroke-width="1.4" opacity="0.38"/><rect x="680" y="200" width="29" height="27" fill="none" stroke="#22272e" stroke-width="1.4" opacity="0.31"/><rect x="720" y="200" width="29" height="30" fill="none" stroke="#22272e" stroke-width="1.4" opacity="0.53"/><rect x="40" y="240" width="32" height="25" fill="none" stroke="#22272e" stroke-width="1.4" opacity="0.50"/><rect x="80" y="240" width="35" height="33" fill="none" stroke="#22272e" stroke-width="1.4" opacity="0.71"/><rect x="120" y="240" width="33" height="33" fill="none" stroke="#22272e" stroke-width="1.4" opacity="0.70"/><rect x="160" y="240" width="33" height="35" fill="none" stroke="#22272e" stroke-width="1.4" opacity="0.69"/><rect x="200" y="240" width="22" height="27" fill="none" stroke="#22272e" stroke-width="1.4" opacity="0.32"/><rect x="240" y="240" width="31" height="35" fill="none" stroke="#22272e" stroke-width="1.4" opacity="0.35"/><rect x="280" y="240" width="36" height="34" fill="none" stroke="#22272e" stroke-width="1.4" opacity="0.36"/><rect x="320" y="240" width="36" height="27" fill="none" stroke="#22272e" stroke-width="1.4" opacity="0.57"/><rect x="360" y="240" width="35" height="35" fill="none" stroke="#22272e" stroke-width="1.4" opacity="0.51"/><rect x="400" y="240" width="27" height="31" fill="none" stroke="#22272e" stroke-width="1.4" opacity="0.76"/><rect x="440" y="240" width="28" height="24" fill="none" stroke="#22272e" stroke-width="1.4" opacity="0.47"/><rect x="480" y="240" width="34" height="28" fill="none" stroke="#22272e" stroke-width="1.4" opacity="0.69"/><rect x="520" y="240" width="23" height="24" fill="none" stroke="#22272e" stroke-width="1.4" opacity="0.38"/><rect x="600" y="240" width="26" height="23" fill="none" stroke="#22272e" stroke-width="1.4" opacity="0.42"/><rect x="640" y="240" width="32" height="30" fill="none" stroke="#22272e" stroke-width="1.4" opacity="0.46"/><rect x="720" y="240" width="33" height="22" fill="none" stroke="#22272e" stroke-width="1.4" opacity="0.77"/><rect x="760" y="240" width="34" height="36" fill="none" stroke="#22272e" stroke-width="1.4" opacity="0.36"/><rect x="40" y="280" width="26" height="25" fill="none" stroke="#22272e" stroke-width="1.4" opacity="0.65"/><rect x="80" y="280" width="30" height="35" fill="none" stroke="#22272e" stroke-width="1.4" opacity="0.46"/><rect x="120" y="280" width="25" height="30" fill="none" stroke="#22272e" stroke-width="1.4" opacity="0.80"/><rect x="160" y="280" width="31" height="35" fill="none" stroke="#22272e" stroke-width="1.4" opacity="0.71"/><rect x="200" y="280" width="32" height="27" fill="none" stroke="#22272e" stroke-width="1.4" opacity="0.56"/><rect x="240" y="280" width="31" height="30" fill="none" stroke="#22272e" stroke-width="1.4" opacity="0.43"/><rect x="280" y="280" width="23" height="34" fill="none" stroke="#22272e" stroke-width="1.4" opacity="0.50"/><rect x="320" y="280" width="36" height="24" fill="none" stroke="#22272e" stroke-width="1.4" opacity="0.49"/><rect x="360" y="280" width="25" height="28" fill="none" stroke="#22272e" stroke-width="1.4" opacity="0.40"/><rect x="440" y="280" width="33" height="29" fill="none" stroke="#22272e" stroke-width="1.4" opacity="0.66"/><rect x="480" y="280" width="35" height="35" fill="none" stroke="#22272e" stroke-width="1.4" opacity="0.65"/><rect x="520" y="280" width="26" height="28" fill="none" stroke="#22272e" stroke-width="1.4" opacity="0.78"/><rect x="560" y="280" width="34" height="23" fill="none" stroke="#22272e" stroke-width="1.4" opacity="0.79"/><rect x="680" y="280" width="27" height="30" fill="none" stroke="#22272e" stroke-width="1.4" opacity="0.68"/><rect x="720" y="280" width="30" height="34" fill="none" stroke="#22272e" stroke-width="1.4" opacity="0.77"/><rect x="760" y="280" width="22" height="33" fill="none" stroke="#22272e" stroke-width="1.4" opacity="0.57"/><rect x="40" y="320" width="26" height="32" fill="none" stroke="#22272e" stroke-width="1.4" opacity="0.61"/><rect x="80" y="320" width="32" height="36" fill="none" stroke="#22272e" stroke-width="1.4" opacity="0.49"/><rect x="120" y="320" width="26" height="23" fill="none" stroke="#22272e" stroke-width="1.4" opacity="0.77"/><rect x="160" y="320" width="25" height="36" fill="none" stroke="#22272e" stroke-width="1.4" opacity="0.62"/><rect x="200" y="320" width="27" height="27" fill="none" stroke="#22272e" stroke-width="1.4" opacity="0.41"/><rect x="240" y="320" width="33" height="24" fill="none" stroke="#22272e" stroke-width="1.4" opacity="0.34"/><rect x="280" y="320" width="26" height="35" fill="none" stroke="#22272e" stroke-width="1.4" opacity="0.78"/><rect x="320" y="320" width="26" height="23" fill="none" stroke="#22272e" stroke-width="1.4" opacity="0.78"/><rect x="360" y="320" width="36" height="33" fill="none" stroke="#22272e" stroke-width="1.4" opacity="0.33"/><rect x="400" y="320" width="23" height="23" fill="none" stroke="#22272e" stroke-width="1.4" opacity="0.57"/><rect x="440" y="320" width="28" height="34" fill="none" stroke="#22272e" stroke-width="1.4" opacity="0.59"/><rect x="480" y="320" width="23" height="35" fill="none" stroke="#22272e" stroke-width="1.4" opacity="0.63"/><rect x="560" y="320" width="29" height="29" fill="none" stroke="#22272e" stroke-width="1.4" opacity="0.79"/><rect x="600" y="320" width="24" height="25" fill="none" stroke="#22272e" stroke-width="1.4" opacity="0.52"/><rect x="680" y="320" width="31" height="24" fill="none" stroke="#22272e" stroke-width="1.4" opacity="0.73"/><rect x="720" y="320" width="27" height="31" fill="none" stroke="#22272e" stroke-width="1.4" opacity="0.63"/><rect x="760" y="320" width="34" height="32" fill="none" stroke="#22272e" stroke-width="1.4" opacity="0.32"/><rect x="40" y="360" width="30" height="33" fill="none" stroke="#22272e" stroke-width="1.4" opacity="0.69"/><rect x="80" y="360" width="29" height="35" fill="none" stroke="#22272e" stroke-width="1.4" opacity="0.69"/><rect x="120" y="360" width="33" height="24" fill="none" stroke="#22272e" stroke-width="1.4" opacity="0.54"/><rect x="160" y="360" width="27" height="29" fill="none" stroke="#22272e" stroke-width="1.4" opacity="0.65"/><rect x="200" y="360" width="36" height="35" fill="none" stroke="#22272e" stroke-width="1.4" opacity="0.47"/><rect x="240" y="360" width="33" height="26" fill="none" stroke="#22272e" stroke-width="1.4" opacity="0.36"/><rect x="320" y="360" width="28" height="35" fill="none" stroke="#22272e" stroke-width="1.4" opacity="0.45"/><rect x="360" y="360" width="24" height="33" fill="none" stroke="#22272e" stroke-width="1.4" opacity="0.50"/><rect x="400" y="360" width="24" height="29" fill="none" stroke="#22272e" stroke-width="1.4" opacity="0.47"/><rect x="440" y="360" width="28" height="23" fill="none" stroke="#22272e" stroke-width="1.4" opacity="0.78"/><rect x="600" y="360" width="28" height="36" fill="none" stroke="#22272e" stroke-width="1.4" opacity="0.37"/><rect x="640" y="360" width="31" height="34" fill="none" stroke="#22272e" stroke-width="1.4" opacity="0.76"/><rect x="680" y="360" width="34" height="25" fill="none" stroke="#22272e" stroke-width="1.4" opacity="0.55"/><rect x="720" y="360" width="30" height="36" fill="none" stroke="#22272e" stroke-width="1.4" opacity="0.53"/><rect x="760" y="360" width="23" height="33" fill="none" stroke="#22272e" stroke-width="1.4" opacity="0.56"/><rect x="40" y="400" width="28" height="29" fill="none" stroke="#22272e" stroke-width="1.4" opacity="0.74"/><rect x="80" y="400" width="23" height="22" fill="none" stroke="#22272e" stroke-width="1.4" opacity="0.41"/><rect x="120" y="400" width="28" height="31" fill="none" stroke="#22272e" stroke-width="1.4" opacity="0.75"/><rect x="200" y="400" width="25" height="33" fill="none" stroke="#22272e" stroke-width="1.4" opacity="0.38"/><rect x="240" y="400" width="30" height="28" fill="none" stroke="#22272e" stroke-width="1.4" opacity="0.53"/><rect x="280" y="400" width="29" height="28" fill="none" stroke="#22272e" stroke-width="1.4" opacity="0.64"/><rect x="320" y="400" width="32" height="22" fill="none" stroke="#22272e" stroke-width="1.4" opacity="0.72"/><rect x="360" y="400" width="30" height="30" fill="none" stroke="#22272e" stroke-width="1.4" opacity="0.77"/><rect x="400" y="400" width="29" height="31" fill="none" stroke="#22272e" stroke-width="1.4" opacity="0.54"/><rect x="440" y="400" width="30" height="33" fill="none" stroke="#22272e" stroke-width="1.4" opacity="0.35"/><rect x="480" y="400" width="23" height="31" fill="none" stroke="#22272e" stroke-width="1.4" opacity="0.49"/><rect x="520" y="400" width="33" height="24" fill="none" stroke="#22272e" stroke-width="1.4" opacity="0.63"/><rect x="560" y="400" width="35" height="33" fill="none" stroke="#22272e" stroke-width="1.4" opacity="0.56"/><rect x="600" y="400" width="30" height="31" fill="none" stroke="#22272e" stroke-width="1.4" opacity="0.50"/><rect x="640" y="400" width="23" height="29" fill="none" stroke="#22272e" stroke-width="1.4" opacity="0.55"/><rect x="680" y="400" width="26" height="30" fill="none" stroke="#22272e" stroke-width="1.4" opacity="0.77"/><rect x="720" y="400" width="27" height="34" fill="none" stroke="#22272e" stroke-width="1.4" opacity="0.35"/><rect x="760" y="400" width="25" height="23" fill="none" stroke="#22272e" stroke-width="1.4" opacity="0.64"/><rect x="40" y="440" width="25" height="35" fill="none" stroke="#22272e" stroke-width="1.4" opacity="0.48"/><rect x="80" y="440" width="35" height="32" fill="none" stroke="#22272e" stroke-width="1.4" opacity="0.50"/><rect x="120" y="440" width="27" height="32" fill="none" stroke="#22272e" stroke-width="1.4" opacity="0.45"/><rect x="160" y="440" width="28" height="24" fill="none" stroke="#22272e" stroke-width="1.4" opacity="0.56"/><rect x="200" y="440" width="33" height="23" fill="none" stroke="#22272e" stroke-width="1.4" opacity="0.32"/><rect x="240" y="440" width="26" height="28" fill="none" stroke="#22272e" stroke-width="1.4" opacity="0.64"/><rect x="280" y="440" width="29" height="23" fill="none" stroke="#22272e" stroke-width="1.4" opacity="0.76"/><rect x="360" y="440" width="31" height="24" fill="none" stroke="#22272e" stroke-width="1.4" opacity="0.79"/><rect x="440" y="440" width="30" height="28" fill="none" stroke="#22272e" stroke-width="1.4" opacity="0.36"/><rect x="480" y="440" width="23" height="24" fill="none" stroke="#22272e" stroke-width="1.4" opacity="0.74"/><rect x="520" y="440" width="23" height="35" fill="none" stroke="#22272e" stroke-width="1.4" opacity="0.62"/><rect x="560" y="440" width="33" height="22" fill="none" stroke="#22272e" stroke-width="1.4" opacity="0.60"/><rect x="600" y="440" width="35" height="28" fill="none" stroke="#22272e" stroke-width="1.4" opacity="0.45"/><rect x="680" y="440" width="25" height="24" fill="none" stroke="#22272e" stroke-width="1.4" opacity="0.34"/><rect x="760" y="440" width="22" height="30" fill="none" stroke="#22272e" stroke-width="1.4" opacity="0.57"/><circle cx="300" cy="260" r="50" fill="none" stroke="#b45309" stroke-width="2.6" opacity="0.85"/><circle cx="300" cy="260" r="95" fill="none" stroke="#b45309" stroke-width="2.6" opacity="0.71"/><circle cx="300" cy="260" r="140" fill="none" stroke="#b45309" stroke-width="2.6" opacity="0.57"/><circle cx="300" cy="260" r="185" fill="none" stroke="#b45309" stroke-width="2.6" opacity="0.43"/><circle cx="520" cy="220" r="50" fill="none" stroke="#0e7570" stroke-width="2.6" opacity="0.85"/><circle cx="520" cy="220" r="95" fill="none" stroke="#0e7570" stroke-width="2.6" opacity="0.71"/><circle cx="520" cy="220" r="140" fill="none" stroke="#0e7570" stroke-width="2.6" opacity="0.57"/><circle cx="300" cy="260" r="14" fill="#b45309" opacity="0.9"/><circle cx="520" cy="220" r="14" fill="#0e7570" opacity="0.9"/></svg>