<svg xmlns="http://www.w3.org/2000/svg" viewBox="0 0 800 500" role="img" aria-label="Abstract urban monitoring motif with radar arcs"><rect width="800" height="500" fill="#f6f4ee"/><rect x="60" y="120" width="33" height="27" fill="none" stroke="#0e7570" stroke-width="1.4" opacity="0.72"/><rect x="100" y="120" width="30" height="30" fill="none" stroke="#0e7570" stroke-width="1.4" opacity="0.32"/><rect x="180" y="120" width="27" height="23" fill="none" stroke="#0e7570" stroke-width="1.4" opacity="0.52"/><rect x="220" y="120" width="34" height="25" fill="none" stroke="#0e7570" stroke-width="1.4" opacity="0.45"/><rect x="260" y="120" width="28" height="25" fill="none" stroke="#0e7570" stroke-width="1.4" opacity="0.73"/><rect x="300" y="120" width="30" height="23" fill="none" stroke="#0e7570" stroke-width="1.4" opacity="0.67"/><rect x="340" y="120" width="23" height="29" fill="none" stroke="#0e7570" stroke-width="1.4" opacity="0.75"/><rect x="380" y="120" width="32" height="28" fill="none" stroke="#0e7570" stroke-width="1.4" opacity="0.79"/><rect x="420" y="120" width="22" height="30" fill="none" stroke="#0e7570" stroke-width="1.4" opacity="0.55"/><rect x="460" y="120" width="23" height="30" fill="none" stroke="#0e7570" stroke-width="1.4" opacity="0.42"/><rect x="500" y="120" width="36" height="36" fill="none" stroke="#0e7570" stroke-width="1.4" opacity="0.38"/><rect x="60" y="160" width="32" height="29" fill="none" stroke="#0e7570" stroke-width="1.4" opacity="0.67"/><rect x="100" y="160" width="35" height="32" fill="none" stroke="#0e7570" stroke-width="1.4" opacity="0.74"/><rect x="140" y="160" width="29" height="34" fill="none" stroke="#0e7570" stroke-width="1.4" opacity="0.32"/><rect x="180" y="160" width="30" height="30" fill="none" stroke="#0e7570" stroke-width="1.4" opacity="0.57"/><rect x="220" y="160" width="33" height="28" fill="none" stroke="#0e7570" stroke-width="1.4" opacity="0.61"/><rect x="260" y="160" width="30" height="26" fill="none" stroke="#0e7570" stroke-width="1.4" opacity="0.74"/><rect x="340" y="160" width="25" height="26" fill="none" stroke="#0e7570" stroke-width="1.4" opacity="0.55"/><rect x="380" y="160" width="36" height="32" fill="none" stroke="#0e7570" stroke-width="1.4" opacity="0.59"/><rect x="420" y="160" width="29" height="34" fill="none" stroke="#0e7570" stroke-width="1.4" opacity="0.58"/><rect x="460" y="160" width="26" height="23" fill="none" stroke="#0e7570" stroke-width="1.4" opacity="0.57"/><rect x="100" y="200" width="34" height="26" fill="none" stroke="#0e7570" stroke-width="1.4" opacity="0.76"/><rect x="140" y="200" width="32" height="29" fill="none" stroke="#0e7570" stroke-width="1.4" opacity="0.38"/><rect x="180" y="200" width="34" height="28" fill="none" stroke="#0e7570" stroke-width="1.4" opacity="0.56"/><rect x="220" y="200" width="35" height="25" fill="none" stroke="#0e7570" stroke-width="1.4" opacity="0.54"/><rect x="260" y="200" width="34" height="27" fill="none" stroke="#0e7570" stroke-width="1.4" opacity="0.45"/><rect x="340" y="200" width="35" height="35" fill="none" stroke="#0e7570" stroke-width="1.4" opacity="0.30"/><rect x="380" y="200" width="25" height="26" fill="none" stroke="#0e7570" stroke-width="1.4" opacity="0.61"/><rect x="420" y="200" width="29" height="24" fill="none" stroke="#0e7570" stroke-width="1.4" opacity="0.33"/><rect x="460" y="200" width="26" height="24" fill="none" stroke="#0e7570" stroke-width="1.4" opacity="0.37"/><rect x="500" y="200" width="28" height="31" fill="none" stroke="#0e7570" stroke-width="1.4" opacity="0.71"/><rect x="60" y="240" width="24" height="26" fill="none" stroke="#0e7570" stroke-width="1.4" opacity="0.70"/><rect x="140" y="240" width="25" height="28" fill="none" stroke="#0e7570" stroke-width="1.4" opacity="0.30"/><rect x="180" y="240" width="30" height="29" fill="none" stroke="#0e7570" stroke-width="1.4" opacity="0.78"/><rect x="220" y="240" width="35" height="27" fill="none" stroke="#0e7570" stroke-width="1.4" opacity="0.60"/><rect x="260" y="240" width="35" height="34" fill="none" stroke="#0e7570" stroke-width="1.4" opacity="0.75"/><rect x="300" y="240" width="27" height="29" fill="none" stroke="#0e7570" stroke-width="1.4" opacity="0.61"/><rect x="340" y="240" width="28" height="35" fill="none" stroke="#0e7570" stroke-width="1.4" opacity="0.79"/><rect x="460" y="240" width="29" height="25" fill="none" stroke="#0e7570" stroke-width="1.4" opacity="0.40"/><rect x="60" y="280" width="25" height="31" fill="none" stroke="#0e7570" stroke-width="1.4" opacity="0.64"/><rect x="100" y="280" width="33" height="27" fill="none" stroke="#0e7570" stroke-width="1.4" opacity="0.68"/><rect x="140" y="280" width="36" height="24" fill="none" stroke="#0e7570" stroke-width="1.4" opacity="0.51"/><rect x="180" y="280" width="35" height="33" fill="none" stroke="#0e7570" stroke-width="1.4" opacity="0.53"/><rect x="380" y="280" width="31" height="26" fill="none" stroke="#0e7570" stroke-width="1.4" opacity="0.79"/><rect x="460" y="280" width="30" height="26" fill="none" stroke="#0e7570" stroke-width="1.4" opacity="0.59"/><rect x="500" y="280" width="25" height="25" fill="none" stroke="#0e7570" stroke-width="1.4" opacity="0.34"/><rect x="60" y="320" width="30" height="27" fill="none" stroke="#0e7570" stroke-width="1.4" opacity="0.67"/><rect x="100" y="320" width="22" height="26" fill="none" stroke="#0e7570" stroke-width="1.4" opacity="0.38"/><rect x="140" y="320" width="23" height="25" fill="none" stroke="#0e7570" stroke-width="1.4" opacity="0.68"/><rect x="180" y="320" width="30" height="25" fill="none" stroke="#0e7570" stroke-width="1.4" opacity="0.42"/><rect x="300" y="320" width="29" height="34" fill="none" stroke="#0e7570" stroke-width="1.4" opacity="0.76"/><rect x="340" y="320" width="22" height="31" fill="none" stroke="#0e7570" stroke-width="1.4" opacity="0.42"/><rect x="380" y="320" width="36" height="25" fill="none" stroke="#0e7570" stroke-width="1.4" opacity="0.54"/><rect x="420" y="320" width="31" height="30" fill="none" stroke="#0e7570" stroke-width="1.4" opacity="0.74"/><rect x="460" y="320" width="33" height="28" fill="none" stroke="#0e7570" stroke-width="1.4" opacity="0.46"/><rect x="500" y="320" width="29" height="30" fill="none" stroke="#0e7570" stroke-width="1.4" opacity="0.34"/><rect x="60" y="360" width="26" height="23" fill="none" stroke="#0e7570" stroke-width="1.4" opacity="0.47"/><rect x="140" y="360" width="33" height="25" fill="none" stroke="#0e7570" stroke-width="1.4" opacity="0.77"/><rect x="220" y="360" width="35" height="30" fill="none" stroke="#0e7570" stroke-width="1.4" opacity="0.67"/><rect x="260" y="360" width="25" height="31" fill="none" stroke="#0e7570" stroke-width="1.4" opacity="0.37"/><rect x="300" y="360" width="33" height="36" fill="none" stroke="#0e7570" stroke-width="1.4" opacity="0.70"/><rect x="340" y="360" width="30" height="31" fill="none" stroke="#0e7570" stroke-width="1.4" opacity="0.31"/><rect x="380" y="360" width="29" height="31" fill="none" stroke="#0e7570" stroke-width="1.4" opacity="0.49"/><rect x="420" y="360" width="22" height="25" fill="none" stroke="#0e7570" stroke-width="1.4" opacity="0.37"/><rect x="460" y="360" width="31" height="24" fill="none" stroke="#0e7570" stroke-width="1.4" opacity="0.75"/><rect x="500" y="360" width="34" height="30" fill="none" stroke="#0e7570" stroke-width="1.4" opacity="0.38"/><rect x="60" y="400" width="23" height="23" fill="none" stroke="#0e7570" stroke-width="1.4" opacity="0.47"/><rect x="100" y="400" width="28" height="35" fill="none" stroke="#0e7570" stroke-width="1.4" opacity="0.33"/><rect x="140" y="400" width="31" height="24" fill="none" stroke="#0e7570" stroke-width="1.4" opacity="0.33"/><rect x="180" y="400" width="32" height="34" fill="none" stroke="#0e7570" stroke-width="1.4" opacity="0.51"/><rect x="260" y="400" width="25" height="29" fill="none" stroke="#0e7570" stroke-width="1.4" opacity="0.54"/><rect x="300" y="400" width="23" height="36" fill="none" stroke="#0e7570" stroke-width="1.4" opacity="0.32"/><rect x="340" y="400" width="31" height="24" fill="none" stroke="#0e7570" stroke-width="1.4" opacity="0.79"/><rect x="420" y="400" width="22" height="31" fill="none" stroke="#0e7570" stroke-width="1.4" opacity="0.75"/><rect x="460" y="400" width="33" height="33" fill="none" stroke="#0e7570" stroke-width="1.4" opacity="0.73"/><rect x="500" y="400" width="29" height="31" fill="none" stroke="#0e7570" stroke-width="1.4" opacity="0.47"/><path d="M 640 420 m -60 0 a 60 60 0 0 1 60 -60" fill="none" stroke="#b45309" stroke-width="2.4" opacity="0.75"/><path d="M 640 420 m -110 0 a 110 110 0 0 1 110 -110" fill="none" stroke="#b45309" stroke-width="2.4" opacity="0.75"/><path d="M 640 420 m -160 0 a 160 160 0 0 1 160 -160" fill="none" stroke="#b45309" stroke-width="2.4" opacity="0.75"/><path d="M 640 420 m -210 0 a 210 210 0 0 1 210 -210" fill="none" stroke="#b45309" stroke-width="2.4" opacity="0.75"/><circle cx="640" cy="420" r="6" fill="#b45309"/></svg>