<svg xmlns="http://www.w3.org/2000/svg" viewBox="0 0 800 500" role="img" aria-label="Abstract nighttime-lights motif"><rect width="800" height="500" fill="#141a22"/><circle cx="219" cy="220" r="2.1" fill="#f5c469" opacity="0.50"/><circle cx="193" cy="185" r="2.7" fill="#f5c469" opacity="0.47"/><circle cx="238" cy="195" r="2.6" fill="#f5c469" opacity="0.60"/><circle cx="215" cy="177" r="4.4" fill="#f5c469" opacity="0.58"/><circle cx="196" cy="258" r="1.6" fill="#f5c469" opacity="0.90"/><circle cx="173" cy="239" r="3.1" fill="#f5c469" opacity="0.40"/><circle cx="214" cy="205" r="1.9" fill="#f5c469" opacity="0.46"/><circle cx="197" cy="219" r="3.9" fill="#f5c469" opacity="0.63"/><circle cx="204" cy="206" r="3.8" fill="#f5c469" opacity="0.68"/><circle cx="217" cy="193" r="2.2" fill="#f5c469" opacity="0.91"/><circle cx="189" cy="261" r="5.0" fill="#f5c469" opacity="0.67"/><circle cx="196" cy="184" r="4.4" fill="#f5c469" opacity="0.72"/><circle cx="193" cy="199" r="3.9" fill="#f5c469" opacity="0.68"/><circle cx="152" cy="246" r="4.9" fill="#f5c469" opacity="0.80"/><circle cx="267" cy="253" r="1.5" fill="#f5c469" opacity="0.78"/><circle cx="193" cy="173" r="3.0" fill="#f5c469" opacity="0.49"/><circle cx="183" cy="215" r="4.1" fill="#f5c469" opacity="0.69"/><circle cx="200" cy="157" r="3.2" fill="#f5c469" opacity="0.67"/><circle cx="230" cy="208" r="3.4" fill="#f5c469" opacity="0.64"/><circle cx="220" cy="199" r="3.5" fill="#f5c469" opacity="0.63"/><circle cx="220" cy="248" r="2.5" fill="#f5c469" opacity="0.51"/><circle cx="198" cy="180" r="4.7" fill="#f5c469" opacity="0.50"/><circle cx="201" cy="213" r="3.6" fill="#f5c469" opacity="0.65"/><circle cx="219" cy="117" r="1.5" fill="#f5c469" opacity="0.58"/><circle cx="193" cy="178" r="4.6" fill="#f5c469" opacity="0.56"/><circle cx="171" cy="224" r="4.3" fill="#f5c469" opacity="0.65"/><circle cx="401" cy="361" r="4.7" fill="#f5c469" opacity="0.55"/><circle cx="417" cy="321" r="4.0" fill="#f5c469" opacity="0.87"/><circle cx="319" cy="285" r="2.8" fill="#f5c469" opacity="0.71"/><circle cx="425" cy="257" r="3.4" fill="#f5c469" opacity="0.43"/><circle cx="359" cy="307" r="3.8" fill="#f5c469" opacity="0.80"/><circle cx="484" cy="324" r="3.1" fill="#f5c469" opacity="0.78"/><circle cx="335" cy="212" r="2.9" fill="#f5c469" opacity="0.54"/><circle cx="511" cy="348" r="3.0" fill="#f5c469" opacity="0.57"/><circle cx="445" cy="279" r="4.9" fill="#f5c469" opacity="0.63"/><circle cx="414" cy="269" r="2.2" fill="#f5c469" opacity="0.39"/><circle cx="388" cy="320" r="1.8" fill="#f5c469" opacity="0.80"/><circle cx="428" cy="339" r="2.6" fill="#f5c469" opacity="0.65"/><circle cx="450" cy="237" r="3.2" fill="#f5c469" opacity="0.57"/><circle cx="333" cy="287" r="3.7" fill="#f5c469" opacity="0.71"/><circle cx="425" cy="322" r="2.8" fill="#f5c469" opacity="0.47"/><circle cx="451" cy="291" r="1.9" fill="#f5c469" opacity="0.38"/><circle cx="514" cy="329" r="4.5" fill="#f5c469" opacity="0.37"/><circle cx="394" cy="335" r="4.2" fill="#f5c469" opacity="0.84"/><circle cx="480" cy="422" r="3.9" fill="#f5c469" opacity="0.48"/><circle cx="438" cy="328" r="4.0" fill="#f5c469" opacity="0.93"/><circle cx="360" cy="255" r="2.6" fill="#f5c469" opacity="0.62"/><circle cx="388" cy="310" r="3.4" fill="#f5c469" opacity="0.50"/><circle cx="464" cy="254" r="3.6" fill="#f5c469" opacity="0.36"/><circle cx="468" cy="365" r="2.3" fill="#f5c469" opacity="0.70"/><circle cx="474" cy="249" r="4.4" fill="#f5c469" opacity="0.40"/><circle cx="297" cy="260" r="4.5" fill="#f5c469" opacity="0.67"/><circle cx="432" cy="327" r="2.3" fill="#f5c469" opacity="0.59"/><circle cx="431" cy="353" r="4.5" fill="#f5c469" opacity="0.41"/><circle cx="466" cy="331" r="3.7" fill="#f5c469" opacity="0.67"/><circle cx="375" cy="338" r="2.4" fill="#f5c469" opacity="0.42"/><circle cx="447" cy="278" r="2.6" fill="#f5c469" opacity="0.46"/><circle cx="409" cy="302" r="3.5" fill="#f5c469" opacity="0.66"/><circle cx="396" cy="259" r="4.9" fill="#f5c469" opacity="0.61"/><circle cx="459" cy="277" r="3.1" fill="#f5c469" opacity="0.62"/><circle cx="658" cy="117" r="3.5" fill="#f5c469" opacity="0.41"/><circle cx="630" cy="183" r="4.7" fill="#f5c469" opacity="0.67"/><circle cx="619" cy="213" r="4.7" fill="#f5c469" opacity="0.53"/><circle cx="650" cy="176" r="3.7" fill="#f5c469" opacity="0.89"/><circle cx="615" cy="137" r="3.7" fill="#f5c469" opacity="0.45"/><circle cx="636" cy="149" r="2.7" fill="#f5c469" opacity="0.80"/><circle cx="609" cy="169" r="2.7" fill="#f5c469" opacity="0.78"/><circle cx="637" cy="161" r="2.4" fill="#f5c469" opacity="0.78"/><circle cx="633" cy="126" r="3.7" fill="#f5c469" opacity="0.71"/><circle cx="590" cy="133" r="3.8" fill="#f5c469" opacity="0.83"/><circle cx="605" cy="130" r="1.9" fill="#f5c469" opacity="0.94"/><circle cx="606" cy="155" r="2.9" fill="#f5c469" opacity="0.37"/><circle cx="618" cy="180" r="3.7" fill="#f5c469" opacity="0.74"/><circle cx="626" cy="184" r="3.4" fill="#f5c469" opacity="0.36"/><circle cx="629" cy="108" r="2.0" fill="#f5c469" opacity="0.57"/><circle cx="623" cy="158" r="2.8" fill="#f5c469" opacity="0.47"/><circle cx="606" cy="150" r="3.2" fill="#f5c469" opacity="0.66"/><circle cx="585" cy="154" r="1.6" fill="#f5c469" opacity="0.86"/><circle cx="640" cy="139" r="4.5" fill="#f5c469" opacity="0.63"/><circle cx="628" cy="163" r="3.9" fill="#f5c469" opacity="0.51"/><circle cx="544" cy="413" r="2.4" fill="#f5c469" opacity="0.87"/><circle cx="562" cy="419" r="2.5" fill="#f5c469" opacity="0.90"/><circle cx="576" cy="420" r="4.3" fill="#f5c469" opacity="0.45"/><circle cx="573" cy="387" r="3.5" fill="#f5c469" opacity="0.43"/><circle cx="572" cy="390" r="2.7" fill="#f5c469" opacity="0.66"/><circle cx="574" cy="405" r="1.9" fill="#f5c469" opacity="0.55"/><circle cx="585" cy="433" r="1.8" fill="#f5c469" opacity="0.45"/><circle cx="560" cy="417" r="3.8" fill="#f5c469" opacity="0.53"/><circle cx="536" cy="387" r="4.9" fill="#f5c469" opacity="0.74"/><circle cx="561" cy="407" r="2.7" fill="#f5c469" opacity="0.44"/><circle cx="533" cy="420" r="4.1" fill="#f5c469" opacity="0.50"/><circle cx="585" cy="412" r="1.7" fill="#f5c469" opacity="0.72"/><circle cx="559" cy="412" r="2.1" fill="#f5c469" opacity="0.35"/><circle cx="535" cy="401" r="3.6" fill="#f5c469" opacity="0.59"/><circle cx="149" cy="380" r="4.1" fill="#f5c469" opacity="0.88"/><circle cx="96" cy="389" r="5.0" fill="#f5c469" opacity="0.79"/><circle cx="132" cy="376" r="2.9" fill="#f5c469" opacity="0.60"/><circle cx="140" cy="374" r="3.1" fill="#f5c469" opacity="0.60"/><circle cx="112" cy="411" r="3.3" fill="#f5c469" opacity="0.50"/><circle cx="119" cy="409" r="3.0" fill="#f5c469" opacity="0.71"/><circle cx="97" cy="387" r="3.0" fill="#f5c469" opacity="0.36"/><circle cx="120" cy="391" r="4.0" fill="#f5c469" opacity="0.41"/><circle cx="121" cy="417" r="3.3" fill="#f5c469" opacity="0.56"/><circle cx="91" cy="410" r="2.1" fill="#f5c469" opacity="0.44"/><circle cx="146" cy="391" r="2.1" fill="#f5c469" opacity="0.79"/><circle cx="132" cy="390" r="1.8" fill="#f5c469" opacity="0.52"/><circle cx="636" cy="207" r="1.7" fill="#f5c469" opacity="0.43"/><circle cx="277" cy="69" r="1.3" fill="#f5c469" opacity="0.26"/><circle cx="245" cy="259" r="1.5" fill="#f5c469" opacity="0.38"/><circle cx="120" cy="210" r="1.6" fill="#f5c469" opacity="0.39"/><circle cx="449" cy="462" r="1.7" fill="#f5c469" opacity="0.38"/><circle cx="39" cy="250" r="0.9" fill="#f5c469" opacity="0.50"/><circle cx="378" cy="62" r="1.7" fill="#f5c469" opacity="0.37"/><circle cx="124" cy="448" r="1.1" fill="#f5c469" opacity="0.34"/><circle cx="478" cy="95" r="0.9" fill="#f5c469" opacity="0.20"/><circle cx="677" cy="97" r="1.3" fill="#f5c469" opacity="0.36"/><circle cx="440" cy="111" r="0.9" fill="#f5c469" opacity="0.47"/><circle cx="530" cy="319" r="0.8" fill="#f5c469" opacity="0.37"/><circle cx="392" cy="76" r="1.2" fill="#f5c469" opacity="0.27"/><circle cx="756" cy="125" r="1.2" fill="#f5c469" opacity="0.55"/><circle cx="584" cy="308" r="1.2" fill="#f5c469" opacity="0.54"/><circle cx="308" cy="140" r="1.5" fill="#f5c469" opacity="0.58"/><circle cx="572" cy="163" r="1.7" fill="#f5c469" opacity="0.33"/><circle cx="499" cy="369" r="0.8" fill="#f5c469" opacity="0.29"/><circle cx="724" cy="281" r="1.5" fill="#f5c469" opacity="0.58"/><circle cx="248" cy="376" r="1.6" fill="#f5c469" opacity="0.20"/><circle cx="611" cy="130" r="0.9" fill="#f5c469" opacity="0.21"/><circle cx="322" cy="205" r="1.3" fill="#f5c469" opacity="0.26"/><circle cx="682" cy="59" r="1.8" fill="#f5c469" opacity="0.42"/><circle cx="234" cy="173" r="1.4" fill="#f5c469" opacity="0.46"/><circle cx="762" cy="148" r="1.8" fill="#f5c469" opacity="0.34"/><circle cx="623" cy="238" r="0.6" fill="#f5c469" opacity="0.58"/><circle cx="136" cy="51" r="1.1" fill="#f5c469" opacity="0.51"/><circle cx="285" cy="447" r="1.6" fill="#f5c469" opacity="0.29"/><circle cx="331" cy="389" r="1.3" fill="#f5c469" opacity="0.58"/><circle cx="337" cy="441" r="0.7" fill="#f5c469" opacity="0.38"/><circle cx="179" cy="225" r="1.1" fill="#f5c469" opacity="0.26"/><circle cx="698" cy="319" r="1.1" fill="#f5c469" opacity="0.34"/><circle cx="412" cy="49" r="1.6" fill="#f5c469" opacity="0.21"/><circle cx="611" cy="368" r="1.0" fill="#f5c469" opacity="0.43"/><circle cx="384" cy="32" r="1.7" fill="#f5c469" opacity="0.51"/><circle cx="94" cy="324" r="1.8" fill="#f5c469" opacity="0.51"/><circle cx="468" cy="35" r="1.5" fill="#f5c469" opacity="0.45"/><circle cx="505" cy="405" r="0.7" fill="#f5c469" opacity="0.32"/><circle cx="395" cy="168" r="0.7" fill="#f5c469" opacity="0.50"/><circle cx="557" cy="117" r="1.8" fill="#f5c469" opacity="0.42"/><circle cx="754" cy="48" r="1.0" fill="#f5c469" opacity="0.23"/><circle cx="542" cy="330" r="1.4" fill="#f5c469" opacity="0.34"/><circle cx="83" cy="466" r="1.7" fill="#f5c469" opacity="0.36"/><circle cx="164" cy="395" r="1.4" fill="#f5c469" opacity="0.54"/><circle cx="81" cy="315" r="1.1" fill="#f5c469" opacity="0.21"/><circle cx="127" cy="293" r="1.3" fill="#f5c469" opacity="0.59"/><circle cx="731" cy="88" r="1.4" fill="#f5c469" opacity="0.38"/><circle cx="430" cy="123" r="1.6" fill="#f5c469" opacity="0.41"/><circle cx="293" cy="230" r="1.6" fill="#f5c469" opacity="0.57"/><circle cx="123" cy="196" r="1.2" fill="#f5c469" opacity="0.54"/><circle cx="137" cy="343" r="1.7" fill="#f5c469" opacity="0.48"/><circle cx="299" cy="35" r="1.5" fill="#f5c469" opacity="0.40"/><circle cx="740" cy="141" r="1.6" fill="#f5c469" opacity="0.32"/><circle cx="423" cy="293" r="0.7" fill="#f5c469" opacity="0.42"/><circle cx="713" cy="191" r="1.8" fill="#f5c469" opacity="0.33"/><circle cx="582" cy="167" r="1.7" fill="#f5c469" opacity="0.23"/><circle cx="69" cy="300" r="0.7" fill="#f5c469" opacity="0.34"/><circle cx="519" cy="305" r="1.4" fill="#f5c469" opacity="0.41"/><circle cx="236" cy="248" r="1.7" fill="#f5c469" opacity="0.60"/><circle cx="657" cy="263" r="1.1" fill="#f5c469" opacity="0.55"/><circle cx="648" cy="149" r="0.9" fill="#f5c469" opacity="0.48"/><circle cx="162" cy="137" r="1.8" fill="#f5c469" opacity="0.22"/><circle cx="164" cy="389" r="1.0" fill="#f5c469" opacity="0.38"/><circle cx="624" cy="38" r="0.8" fill="#f5c469" opacity="0.52"/><circle cx="267" cy="147" r="1.8" fill="#f5c469" opacity="0.28"/><circle cx="301" cy="223" r="0.6" fill="#f5c469" opacity="0.44"/><circle cx="113" cy="111" r="0.8" fill="#f5c469" opacity="0.31"/><circle cx="384" cy="96" r="0.7" fill="#f5c469" opacity="0.57"/><circle cx="285" cy="68" r="0.7" fill="#f5c469" opacity="0.22"/><circle cx="735" cy="368" r="0.7" fill="#f5c469" opacity="0.23"/></svg>