<svg xmlns="http://www.w3.org/2000/svg" viewBox="0 0 140 70" fill="none" aria-hidden="true" focusable="false">
  <!-- satellite with panels -->
  <g stroke="var(--global-theme-color)" stroke-width="3" stroke-linecap="round" stroke-linejoin="round">
    <rect x="61" y="7" width="18" height="13" rx="2" />
    <rect x="40" y="9.5" width="14" height="8" rx="1.5" />
    <rect x="86" y="9.5" width="14" height="8" rx="1.5" />
    <line x1="54" y1="13.5" x2="61" y2="13.5" />
    <line x1="79" y1="13.5" x2="86" y2="13.5" />
  </g>
  <!-- downlink signal arcs -->
  <g stroke="var(--global-highlight-color)" stroke-width="2.5" stroke-linecap="round">
    <path d="M60 30 a14 14 0 0 0 20 0" />
    <path d="M52 40 a25 25 0 0 0 36 0" />
  </g>
  <!-- ground raster -->
  <g stroke="var(--global-theme-color)" stroke-width="2.5" stroke-linecap="round">
    <line x1="14" y1="60" x2="126" y2="60" />
    <rect x="30" y="52" width="8" height="8" />
    <rect x="52" y="52" width="8" height="8" />
    <rect x="80" y="52" width="8" height="8" />
    <rect x="102" y="52" width="8" height="8" />
  </g>
</svg>
