<svg xmlns="http://www.w3.org/2000/svg" viewBox="0 0 140 90" fill="none" aria-hidden="true" focusable="false">
  <!-- skyline with windows -->
  <g stroke="var(--global-theme-color)" stroke-width="2.5" stroke-linecap="round" stroke-linejoin="round">
    <path d="M14 82 V48 h14 v34" />
    <path d="M36 82 V34 h16 v48" />
    <path d="M60 82 V54 h13 v28" />
    <path d="M81 82 V42 h15 v40" />
    <line x1="8" y1="82" x2="132" y2="82" />
    <rect x="18" y="54" width="5" height="5" stroke-width="1.5" />
    <rect x="40" y="40" width="5" height="5" stroke-width="1.5" />
    <rect x="47" y="50" width="5" height="5" stroke-width="1.5" />
    <rect x="85" y="48" width="5" height="5" stroke-width="1.5" />
    <rect x="85" y="60" width="5" height="5" stroke-width="1.5" />
  </g>
  <!-- compound exposure isopleths: heat (warm) and pollution (teal) overlapping -->
  <g stroke="var(--global-highlight-color)" stroke-width="2" stroke-dasharray="4 3">
    <circle cx="42" cy="26" r="9" />
    <circle cx="42" cy="26" r="17" />
  </g>
  <g stroke="var(--global-theme-color)" stroke-width="2" stroke-dasharray="4 3">
    <circle cx="68" cy="22" r="9" />
    <circle cx="68" cy="22" r="17" />
  </g>
  <!-- exposure-risk curve (mini chart) -->
  <g stroke="var(--global-theme-color)" stroke-width="2" stroke-linecap="round">
    <path d="M102 8 V32 H136" />
    <line x1="100" y1="14" x2="102" y2="14" stroke-width="1.5" />
    <line x1="112" y1="32" x2="112" y2="34" stroke-width="1.5" />
    <line x1="124" y1="32" x2="124" y2="34" stroke-width="1.5" />
  </g>
  <path
    d="M104 29 C 116 28 126 22 134 10"
    stroke="var(--global-highlight-color)"
    stroke-width="2.5"
    stroke-linecap="round"
  />
</svg>
