<svg xmlns="http://www.w3.org/2000/svg" viewBox="0 0 800 500" role="img" aria-label="Abstract urban expansion gradient motif"><rect width="800" height="500" fill="#f6f4ee"/><rect x="60" y="60" width="30" height="30" fill="#0e7570" opacity="0.52"/><rect x="100" y="60" width="30" height="30" fill="#0e7570" opacity="0.81"/><rect x="140" y="60" width="30" height="30" fill="#0e7570" opacity="0.72"/><rect x="180" y="60" width="30" height="30" fill="#0e7570" opacity="0.59"/><rect x="220" y="60" width="30" height="30" fill="#0e7570" opacity="0.67"/><rect x="60" y="100" width="30" height="30" fill="#0e7570" opacity="0.71"/><rect x="100" y="100" width="30" height="30" fill="#0e7570" opacity="0.61"/><rect x="140" y="100" width="30" height="30" fill="#0e7570" opacity="0.49"/><rect x="180" y="100" width="30" height="30" fill="#0e7570" opacity="0.50"/><rect x="220" y="100" width="30" height="30" fill="#0e7570" opacity="0.69"/><rect x="60" y="140" width="30" height="30" fill="#0e7570" opacity="0.76"/><rect x="100" y="140" width="30" height="30" fill="#0e7570" opacity="0.79"/><rect x="140" y="140" width="30" height="30" fill="#0e7570" opacity="0.52"/><rect x="180" y="140" width="30" height="30" fill="#0e7570" opacity="0.74"/><rect x="220" y="140" width="30" height="30" fill="#0e7570" opacity="0.71"/><rect x="60" y="180" width="30" height="30" fill="#0e7570" opacity="0.81"/><rect x="100" y="180" width="30" height="30" fill="#0e7570" opacity="0.84"/><rect x="140" y="180" width="30" height="30" fill="#0e7570" opacity="0.56"/><rect x="180" y="180" width="30" height="30" fill="#0e7570" opacity="0.68"/><rect x="220" y="180" width="30" height="30" fill="#0e7570" opacity="0.80"/><rect x="60" y="220" width="30" height="30" fill="#0e7570" opacity="0.55"/><rect x="100" y="220" width="30" height="30" fill="#0e7570" opacity="0.71"/><rect x="140" y="220" width="30" height="30" fill="#0e7570" opacity="0.71"/><rect x="180" y="220" width="30" height="30" fill="#0e7570" opacity="0.59"/><rect x="220" y="220" width="30" height="30" fill="#0e7570" opacity="0.48"/><rect x="60" y="260" width="30" height="30" fill="#0e7570" opacity="0.73"/><rect x="100" y="260" width="30" height="30" fill="#0e7570" opacity="0.74"/><rect x="140" y="260" width="30" height="30" fill="#0e7570" opacity="0.80"/><rect x="180" y="260" width="30" height="30" fill="#0e7570" opacity="0.56"/><rect x="220" y="260" width="30" height="30" fill="#0e7570" opacity="0.45"/><rect x="60" y="300" width="30" height="30" fill="#0e7570" opacity="0.79"/><rect x="100" y="300" width="30" height="30" fill="#0e7570" opacity="0.74"/><rect x="140" y="300" width="30" height="30" fill="#0e7570" opacity="0.71"/><rect x="180" y="300" width="30" height="30" fill="#0e7570" opacity="0.80"/><rect x="220" y="300" width="30" height="30" fill="#0e7570" opacity="0.74"/><rect x="60" y="340" width="30" height="30" fill="#0e7570" opacity="0.60"/><rect x="100" y="340" width="30" height="30" fill="#0e7570" opacity="0.83"/><rect x="140" y="340" width="30" height="30" fill="#0e7570" opacity="0.61"/><rect x="180" y="340" width="30" height="30" fill="#0e7570" opacity="0.71"/><rect x="220" y="340" width="30" height="30" fill="#0e7570" opacity="0.62"/><rect x="100" y="380" width="30" height="30" fill="#0e7570" opacity="0.51"/><rect x="140" y="380" width="30" height="30" fill="#0e7570" opacity="0.54"/><rect x="180" y="380" width="30" height="30" fill="#0e7570" opacity="0.56"/><rect x="220" y="380" width="30" height="30" fill="#0e7570" opacity="0.59"/><rect x="60" y="420" width="30" height="30" fill="#0e7570" opacity="0.74"/><rect x="100" y="420" width="30" height="30" fill="#0e7570" opacity="0.52"/><rect x="140" y="420" width="30" height="30" fill="#0e7570" opacity="0.44"/><rect x="180" y="420" width="30" height="30" fill="#0e7570" opacity="0.71"/><rect x="220" y="420" width="30" height="30" fill="#0e7570" opacity="0.53"/><rect x="280" y="60" width="30" height="30" fill="#0e7570" opacity="0.32"/><rect x="320" y="60" width="30" height="30" fill="#0e7570" opacity="0.34"/><rect x="400" y="60" width="30" height="30" fill="#0e7570" opacity="0.55"/><rect x="440" y="60" width="30" height="30" fill="#0e7570" opacity="0.47"/><rect x="280" y="100" width="30" height="30" fill="#0e7570" opacity="0.41"/><rect x="440" y="100" width="30" height="30" fill="#0e7570" opacity="0.44"/><rect x="320" y="140" width="30" height="30" fill="#0e7570" opacity="0.42"/><rect x="360" y="140" width="30" height="30" fill="#0e7570" opacity="0.32"/><rect x="280" y="180" width="30" height="30" fill="#0e7570" opacity="0.42"/><rect x="320" y="180" width="30" height="30" fill="#0e7570" opacity="0.37"/><rect x="280" y="220" width="30" height="30" fill="#0e7570" opacity="0.32"/><rect x="360" y="220" width="30" height="30" fill="#0e7570" opacity="0.50"/><rect x="440" y="220" width="30" height="30" fill="#0e7570" opacity="0.44"/><rect x="280" y="260" width="30" height="30" fill="#0e7570" opacity="0.49"/><rect x="360" y="260" width="30" height="30" fill="#0e7570" opacity="0.41"/><rect x="400" y="260" width="30" height="30" fill="#0e7570" opacity="0.34"/><rect x="440" y="260" width="30" height="30" fill="#0e7570" opacity="0.41"/><rect x="280" y="300" width="30" height="30" fill="#0e7570" opacity="0.41"/><rect x="400" y="300" width="30" height="30" fill="#0e7570" opacity="0.50"/><rect x="320" y="340" width="30" height="30" fill="#0e7570" opacity="0.48"/><rect x="360" y="340" width="30" height="30" fill="#0e7570" opacity="0.50"/><rect x="400" y="340" width="30" height="30" fill="#0e7570" opacity="0.38"/><rect x="440" y="340" width="30" height="30" fill="#0e7570" opacity="0.51"/><rect x="280" y="380" width="30" height="30" fill="#0e7570" opacity="0.52"/><rect x="320" y="380" width="30" height="30" fill="#0e7570" opacity="0.32"/><rect x="400" y="380" width="30" height="30" fill="#0e7570" opacity="0.28"/><rect x="280" y="420" width="30" height="30" fill="#0e7570" opacity="0.28"/><rect x="400" y="420" width="30" height="30" fill="#0e7570" opacity="0.33"/><rect x="440" y="420" width="30" height="30" fill="#0e7570" opacity="0.44"/><rect x="660" y="60" width="30" height="30" fill="#0e7570" opacity="0.18"/><rect x="700" y="100" width="30" height="30" fill="#0e7570" opacity="0.21"/><rect x="500" y="140" width="30" height="30" fill="#0e7570" opacity="0.28"/><rect x="660" y="140" width="30" height="30" fill="#0e7570" opacity="0.27"/><rect x="700" y="140" width="30" height="30" fill="#0e7570" opacity="0.21"/><rect x="500" y="180" width="30" height="30" fill="#0e7570" opacity="0.28"/><rect x="540" y="180" width="30" height="30" fill="#0e7570" opacity="0.17"/><rect x="580" y="180" width="30" height="30" fill="#0e7570" opacity="0.28"/><rect x="620" y="180" width="30" height="30" fill="#0e7570" opacity="0.29"/><rect x="660" y="180" width="30" height="30" fill="#0e7570" opacity="0.28"/><rect x="700" y="180" width="30" height="30" fill="#0e7570" opacity="0.29"/><rect x="500" y="260" width="30" height="30" fill="#0e7570" opacity="0.28"/><rect x="580" y="260" width="30" height="30" fill="#0e7570" opacity="0.18"/><rect x="580" y="300" width="30" height="30" fill="#0e7570" opacity="0.25"/><rect x="660" y="300" width="30" height="30" fill="#0e7570" opacity="0.25"/><rect x="500" y="340" width="30" height="30" fill="#0e7570" opacity="0.27"/><rect x="620" y="340" width="30" height="30" fill="#0e7570" opacity="0.25"/><rect x="660" y="340" width="30" height="30" fill="#0e7570" opacity="0.19"/><rect x="500" y="380" width="30" height="30" fill="#0e7570" opacity="0.16"/><rect x="620" y="380" width="30" height="30" fill="#0e7570" opacity="0.21"/><rect x="500" y="420" width="30" height="30" fill="#0e7570" opacity="0.25"/><rect x="540" y="420" width="30" height="30" fill="#0e7570" opacity="0.29"/></svg>