<svg xmlns="http://www.w3.org/2000/svg" viewBox="0 0 800 500" role="img" aria-label="Abstract satellite raster motif"><rect width="800" height="500" fill="#f6f4ee"/><rect x="60" y="60" width="38" height="38" fill="#0e7570" opacity="0.31"/><rect x="100" y="60" width="38" height="38" fill="#0e7570" opacity="0.37"/><rect x="140" y="60" width="38" height="38" fill="#0e7570" opacity="0.57"/><rect x="180" y="60" width="38" height="38" fill="#0e7570" opacity="0.32"/><rect x="220" y="60" width="38" height="38" fill="#0e7570" opacity="0.34"/><rect x="260" y="60" width="38" height="38" fill="#0e7570" opacity="0.38"/><rect x="300" y="60" width="38" height="38" fill="#0e7570" opacity="0.16"/><rect x="340" y="60" width="38" height="38" fill="#0e7570" opacity="0.34"/><rect x="380" y="60" width="38" height="38" fill="#0e7570" opacity="0.41"/><rect x="420" y="60" width="38" height="38" fill="#0e7570" opacity="0.50"/><rect x="460" y="60" width="38" height="38" fill="#0e7570" opacity="0.11"/><rect x="500" y="60" width="38" height="38" fill="#0e7570" opacity="0.23"/><rect x="540" y="60" width="38" height="38" fill="#0e7570" opacity="0.11"/><rect x="580" y="60" width="38" height="38" fill="#0e7570" opacity="0.51"/><rect x="620" y="60" width="38" height="38" fill="#0e7570" opacity="0.44"/><rect x="660" y="60" width="38" height="38" fill="#0e7570" opacity="0.08"/><rect x="700" y="60" width="38" height="38" fill="#0e7570" opacity="0.60"/><rect x="60" y="100" width="38" height="38" fill="#0e7570" opacity="0.59"/><rect x="100" y="100" width="38" height="38" fill="#0e7570" opacity="0.42"/><rect x="140" y="100" width="38" height="38" fill="#0e7570" opacity="0.40"/><rect x="180" y="100" width="38" height="38" fill="#0e7570" opacity="0.15"/><rect x="220" y="100" width="38" height="38" fill="#0e7570" opacity="0.07"/><rect x="260" y="100" width="38" height="38" fill="#0e7570" opacity="0.35"/><rect x="300" y="100" width="38" height="38" fill="#0e7570" opacity="0.09"/><rect x="340" y="100" width="38" height="38" fill="#0e7570" opacity="0.16"/><rect x="380" y="100" width="38" height="38" fill="#0e7570" opacity="0.19"/><rect x="420" y="100" width="38" height="38" fill="#0e7570" opacity="0.08"/><rect x="460" y="100" width="38" height="38" fill="#0e7570" opacity="0.32"/><rect x="500" y="100" width="38" height="38" fill="#0e7570" opacity="0.30"/><rect x="540" y="100" width="38" height="38" fill="#0e7570" opacity="0.52"/><rect x="580" y="100" width="38" height="38" fill="#0e7570" opacity="0.35"/><rect x="620" y="100" width="38" height="38" fill="#0e7570" opacity="0.41"/><rect x="660" y="100" width="38" height="38" fill="#0e7570" opacity="0.33"/><rect x="700" y="100" width="38" height="38" fill="#0e7570" opacity="0.42"/><rect x="60" y="140" width="38" height="38" fill="#0e7570" opacity="0.31"/><rect x="100" y="140" width="38" height="38" fill="#0e7570" opacity="0.21"/><rect x="140" y="140" width="38" height="38" fill="#0e7570" opacity="0.61"/><rect x="180" y="140" width="38" height="38" fill="#0e7570" opacity="0.61"/><rect x="220" y="140" width="38" height="38" fill="#0e7570" opacity="0.52"/><rect x="260" y="140" width="38" height="38" fill="#0e7570" opacity="0.45"/><rect x="300" y="140" width="38" height="38" fill="#0e7570" opacity="0.23"/><rect x="340" y="140" width="38" height="38" fill="#0e7570" opacity="0.19"/><rect x="380" y="140" width="38" height="38" fill="#0e7570" opacity="0.22"/><rect x="420" y="140" width="38" height="38" fill="#0e7570" opacity="0.10"/><rect x="460" y="140" width="38" height="38" fill="#0e7570" opacity="0.48"/><rect x="500" y="140" width="38" height="38" fill="#0e7570" opacity="0.28"/><rect x="540" y="140" width="38" height="38" fill="#0e7570" opacity="0.53"/><rect x="580" y="140" width="38" height="38" fill="#0e7570" opacity="0.27"/><rect x="620" y="140" width="38" height="38" fill="#0e7570" opacity="0.59"/><rect x="660" y="140" width="38" height="38" fill="#0e7570" opacity="0.53"/><rect x="700" y="140" width="38" height="38" fill="#0e7570" opacity="0.06"/><rect x="60" y="180" width="38" height="38" fill="#0e7570" opacity="0.18"/><rect x="100" y="180" width="38" height="38" fill="#0e7570" opacity="0.56"/><rect x="140" y="180" width="38" height="38" fill="#0e7570" opacity="0.32"/><rect x="180" y="180" width="38" height="38" fill="#0e7570" opacity="0.60"/><rect x="220" y="180" width="38" height="38" fill="#0e7570" opacity="0.28"/><rect x="260" y="180" width="38" height="38" fill="#0e7570" opacity="0.10"/><rect x="300" y="180" width="38" height="38" fill="#0e7570" opacity="0.41"/><rect x="340" y="180" width="38" height="38" fill="#0e7570" opacity="0.49"/><rect x="380" y="180" width="38" height="38" fill="#0e7570" opacity="0.21"/><rect x="420" y="180" width="38" height="38" fill="#0e7570" opacity="0.11"/><rect x="460" y="180" width="38" height="38" fill="#0e7570" opacity="0.24"/><rect x="500" y="180" width="38" height="38" fill="#0e7570" opacity="0.59"/><rect x="540" y="180" width="38" height="38" fill="#0e7570" opacity="0.48"/><rect x="580" y="180" width="38" height="38" fill="#0e7570" opacity="0.12"/><rect x="620" y="180" width="38" height="38" fill="#0e7570" opacity="0.20"/><rect x="660" y="180" width="38" height="38" fill="#0e7570" opacity="0.12"/><rect x="700" y="180" width="38" height="38" fill="#0e7570" opacity="0.09"/><rect x="60" y="220" width="38" height="38" fill="#0e7570" opacity="0.50"/><rect x="100" y="220" width="38" height="38" fill="#0e7570" opacity="0.16"/><rect x="140" y="220" width="38" height="38" fill="#0e7570" opacity="0.37"/><rect x="180" y="220" width="38" height="38" fill="#0e7570" opacity="0.31"/><rect x="220" y="220" width="38" height="38" fill="#0e7570" opacity="0.16"/><rect x="260" y="220" width="38" height="38" fill="#0e7570" opacity="0.46"/><rect x="300" y="220" width="38" height="38" fill="#0e7570" opacity="0.13"/><rect x="340" y="220" width="38" height="38" fill="#0e7570" opacity="0.41"/><rect x="380" y="220" width="38" height="38" fill="#0e7570" opacity="0.12"/><rect x="420" y="220" width="38" height="38" fill="#0e7570" opacity="0.29"/><rect x="460" y="220" width="38" height="38" fill="#0e7570" opacity="0.18"/><rect x="500" y="220" width="38" height="38" fill="#0e7570" opacity="0.21"/><rect x="540" y="220" width="38" height="38" fill="#0e7570" opacity="0.59"/><rect x="580" y="220" width="38" height="38" fill="#0e7570" opacity="0.50"/><rect x="620" y="220" width="38" height="38" fill="#0e7570" opacity="0.23"/><rect x="660" y="220" width="38" height="38" fill="#0e7570" opacity="0.55"/><rect x="700" y="220" width="38" height="38" fill="#0e7570" opacity="0.18"/><rect x="60" y="260" width="38" height="38" fill="#0e7570" opacity="0.28"/><rect x="100" y="260" width="38" height="38" fill="#0e7570" opacity="0.53"/><rect x="140" y="260" width="38" height="38" fill="#0e7570" opacity="0.41"/><rect x="180" y="260" width="38" height="38" fill="#0e7570" opacity="0.12"/><rect x="220" y="260" width="38" height="38" fill="#0e7570" opacity="0.60"/><rect x="260" y="260" width="38" height="38" fill="#0e7570" opacity="0.18"/><rect x="300" y="260" width="38" height="38" fill="#0e7570" opacity="0.20"/><rect x="340" y="260" width="38" height="38" fill="#0e7570" opacity="0.48"/><rect x="380" y="260" width="38" height="38" fill="#0e7570" opacity="0.24"/><rect x="420" y="260" width="38" height="38" fill="#0e7570" opacity="0.22"/><rect x="460" y="260" width="38" height="38" fill="#0e7570" opacity="0.10"/><rect x="500" y="260" width="38" height="38" fill="#0e7570" opacity="0.11"/><rect x="540" y="260" width="38" height="38" fill="#0e7570" opacity="0.38"/><rect x="580" y="260" width="38" height="38" fill="#0e7570" opacity="0.19"/><rect x="620" y="260" width="38" height="38" fill="#0e7570" opacity="0.39"/><rect x="660" y="260" width="38" height="38" fill="#0e7570" opacity="0.26"/><rect x="700" y="260" width="38" height="38" fill="#0e7570" opacity="0.31"/><rect x="60" y="300" width="38" height="38" fill="#0e7570" opacity="0.59"/><rect x="100" y="300" width="38" height="38" fill="#0e7570" opacity="0.33"/><rect x="140" y="300" width="38" height="38" fill="#0e7570" opacity="0.38"/><rect x="180" y="300" width="38" height="38" fill="#0e7570" opacity="0.54"/><rect x="220" y="300" width="38" height="38" fill="#0e7570" opacity="0.16"/><rect x="260" y="300" width="38" height="38" fill="#0e7570" opacity="0.14"/><rect x="300" y="300" width="38" height="38" fill="#0e7570" opacity="0.56"/><rect x="340" y="300" width="38" height="38" fill="#0e7570" opacity="0.51"/><rect x="380" y="300" width="38" height="38" fill="#0e7570" opacity="0.20"/><rect x="420" y="300" width="38" height="38" fill="#0e7570" opacity="0.16"/><rect x="460" y="300" width="38" height="38" fill="#0e7570" opacity="0.47"/><rect x="500" y="300" width="38" height="38" fill="#0e7570" opacity="0.58"/><rect x="540" y="300" width="38" height="38" fill="#0e7570" opacity="0.17"/><rect x="580" y="300" width="38" height="38" fill="#0e7570" opacity="0.58"/><rect x="620" y="300" width="38" height="38" fill="#0e7570" opacity="0.55"/><rect x="660" y="300" width="38" height="38" fill="#0e7570" opacity="0.39"/><rect x="700" y="300" width="38" height="38" fill="#0e7570" opacity="0.29"/><rect x="60" y="340" width="38" height="38" fill="#0e7570" opacity="0.12"/><rect x="100" y="340" width="38" height="38" fill="#0e7570" opacity="0.08"/><rect x="140" y="340" width="38" height="38" fill="#0e7570" opacity="0.59"/><rect x="180" y="340" width="38" height="38" fill="#0e7570" opacity="0.19"/><rect x="220" y="340" width="38" height="38" fill="#0e7570" opacity="0.45"/><rect x="260" y="340" width="38" height="38" fill="#0e7570" opacity="0.20"/><rect x="300" y="340" width="38" height="38" fill="#0e7570" opacity="0.51"/><rect x="340" y="340" width="38" height="38" fill="#0e7570" opacity="0.39"/><rect x="380" y="340" width="38" height="38" fill="#0e7570" opacity="0.22"/><rect x="420" y="340" width="38" height="38" fill="#0e7570" opacity="0.16"/><rect x="460" y="340" width="38" height="38" fill="#0e7570" opacity="0.46"/><rect x="500" y="340" width="38" height="38" fill="#0e7570" opacity="0.10"/><rect x="540" y="340" width="38" height="38" fill="#0e7570" opacity="0.19"/><rect x="580" y="340" width="38" height="38" fill="#0e7570" opacity="0.37"/><rect x="620" y="340" width="38" height="38" fill="#0e7570" opacity="0.53"/><rect x="660" y="340" width="38" height="38" fill="#0e7570" opacity="0.40"/><rect x="700" y="340" width="38" height="38" fill="#0e7570" opacity="0.21"/><rect x="60" y="380" width="38" height="38" fill="#0e7570" opacity="0.56"/><rect x="100" y="380" width="38" height="38" fill="#0e7570" opacity="0.17"/><rect x="140" y="380" width="38" height="38" fill="#0e7570" opacity="0.07"/><rect x="180" y="380" width="38" height="38" fill="#0e7570" opacity="0.21"/><rect x="220" y="380" width="38" height="38" fill="#0e7570" opacity="0.31"/><rect x="260" y="380" width="38" height="38" fill="#0e7570" opacity="0.09"/><rect x="300" y="380" width="38" height="38" fill="#0e7570" opacity="0.16"/><rect x="340" y="380" width="38" height="38" fill="#0e7570" opacity="0.26"/><rect x="380" y="380" width="38" height="38" fill="#0e7570" opacity="0.37"/><rect x="420" y="380" width="38" height="38" fill="#0e7570" opacity="0.13"/><rect x="460" y="380" width="38" height="38" fill="#0e7570" opacity="0.26"/><rect x="500" y="380" width="38" height="38" fill="#0e7570" opacity="0.55"/><rect x="540" y="380" width="38" height="38" fill="#0e7570" opacity="0.60"/><rect x="580" y="380" width="38" height="38" fill="#0e7570" opacity="0.42"/><rect x="620" y="380" width="38" height="38" fill="#0e7570" opacity="0.44"/><rect x="660" y="380" width="38" height="38" fill="#0e7570" opacity="0.38"/><rect x="700" y="380" width="38" height="38" fill="#0e7570" opacity="0.14"/><rect x="60" y="420" width="38" height="38" fill="#0e7570" opacity="0.08"/><rect x="100" y="420" width="38" height="38" fill="#0e7570" opacity="0.07"/><rect x="140" y="420" width="38" height="38" fill="#0e7570" opacity="0.56"/><rect x="180" y="420" width="38" height="38" fill="#0e7570" opacity="0.45"/><rect x="220" y="420" width="38" height="38" fill="#0e7570" opacity="0.59"/><rect x="260" y="420" width="38" height="38" fill="#0e7570" opacity="0.07"/><rect x="300" y="420" width="38" height="38" fill="#0e7570" opacity="0.41"/><rect x="340" y="420" width="38" height="38" fill="#0e7570" opacity="0.33"/><rect x="380" y="420" width="38" height="38" fill="#0e7570" opacity="0.46"/><rect x="420" y="420" width="38" height="38" fill="#0e7570" opacity="0.24"/><rect x="460" y="420" width="38" height="38" fill="#0e7570" opacity="0.61"/><rect x="500" y="420" width="38" height="38" fill="#0e7570" opacity="0.10"/><rect x="540" y="420" width="38" height="38" fill="#0e7570" opacity="0.36"/><rect x="580" y="420" width="38" height="38" fill="#0e7570" opacity="0.47"/><rect x="620" y="420" width="38" height="38" fill="#0e7570" opacity="0.56"/><rect x="660" y="420" width="38" height="38" fill="#0e7570" opacity="0.47"/><rect x="700" y="420" width="38" height="38" fill="#0e7570" opacity="0.45"/><line x1="60" y1="440" x2="740" y2="60" stroke="#b45309" stroke-width="3" opacity="0.85"/><circle cx="740" cy="60" r="7" fill="#b45309"/></svg>