<svg xmlns="http://www.w3.org/2000/svg" viewBox="0 0 800 500" role="img" aria-label="Abstract motif of overlapping exposure zones in a city"><rect width="800" height="500" fill="#f6f4ee"/><rect x="180" y="60" width="30" height="28" fill="none" stroke="#22272e" stroke-width="1.4" opacity="0.57"/><rect x="220" y="60" width="25" height="28" fill="none" stroke="#22272e" stroke-width="1.4" opacity="0.41"/><rect x="260" y="60" width="22" height="23" fill="none" stroke="#22272e" stroke-width="1.4" opacity="0.66"/><rect x="300" y="60" width="29" height="32" fill="none" stroke="#22272e" stroke-width="1.4" opacity="0.48"/><rect x="340" y="60" width="33" height="30" fill="none" stroke="#22272e" stroke-width="1.4" opacity="0.63"/><rect x="380" y="60" width="36" height="27" fill="none" stroke="#22272e" stroke-width="1.4" opacity="0.68"/><rect x="420" y="60" width="30" height="31" fill="none" stroke="#22272e" stroke-width="1.4" opacity="0.46"/><rect x="460" y="60" width="29" height="32" fill="none" stroke="#22272e" stroke-width="1.4" opacity="0.60"/><rect x="500" y="60" width="31" height="25" fill="none" stroke="#22272e" stroke-width="1.4" opacity="0.39"/><rect x="540" y="60" width="33" height="25" fill="none" stroke="#22272e" stroke-width="1.4" opacity="0.36"/><rect x="580" y="60" width="23" height="26" fill="none" stroke="#22272e" stroke-width="1.4" opacity="0.59"/><rect x="660" y="60" width="27" height="26" fill="none" stroke="#22272e" stroke-width="1.4" opacity="0.45"/><rect x="700" y="60" width="30" height="26" fill="none" stroke="#22272e" stroke-width="1.4" opacity="0.35"/><rect x="60" y="100" width="32" height="34" fill="none" stroke="#22272e" stroke-width="1.4" opacity="0.42"/><rect x="100" y="100" width="35" height="30" fill="none" stroke="#22272e" stroke-width="1.4" opacity="0.77"/><rect x="140" y="100" width="36" height="23" fill="none" stroke="#22272e" stroke-width="1.4" opacity="0.51"/><rect x="180" y="100" width="33" height="32" fill="none" stroke="#22272e" stroke-width="1.4" opacity="0.79"/><rect x="220" y="100" width="35" height="30" fill="none" stroke="#22272e" stroke-width="1.4" opacity="0.79"/><rect x="260" y="100" width="27" height="36" fill="none" stroke="#22272e" stroke-width="1.4" opacity="0.49"/><rect x="300" y="100" width="23" height="29" fill="none" stroke="#22272e" stroke-width="1.4" opacity="0.40"/><rect x="420" y="100" width="23" height="29" fill="none" stroke="#22272e" stroke-width="1.4" opacity="0.38"/><rect x="460" y="100" width="33" height="26" fill="none" stroke="#22272e" stroke-width="1.4" opacity="0.51"/><rect x="540" y="100" width="27" height="34" fill="none" stroke="#22272e" stroke-width="1.4" opacity="0.71"/><rect x="620" y="100" width="28" height="32" fill="none" stroke="#22272e" stroke-width="1.4" opacity="0.71"/><rect x="660" y="100" width="25" height="26" fill="none" stroke="#22272e" stroke-width="1.4" opacity="0.50"/><rect x="700" y="100" width="30" height="30" fill="none" stroke="#22272e" stroke-width="1.4" opacity="0.71"/><rect x="60" y="140" width="31" height="27" fill="none" stroke="#22272e" stroke-width="1.4" opacity="0.58"/><rect x="140" y="140" width="35" height="23" fill="none" stroke="#22272e" stroke-width="1.4" opacity="0.58"/><rect x="180" y="140" width="25" height="30" fill="none" stroke="#22272e" stroke-width="1.4" opacity="0.54"/><rect x="220" y="140" width="32" height="22" fill="none" stroke="#22272e" stroke-width="1.4" opacity="0.49"/><rect x="260" y="140" width="24" height="34" fill="none" stroke="#22272e" stroke-width="1.4" opacity="0.40"/><rect x="300" y="140" width="24" height="28" fill="none" stroke="#22272e" stroke-width="1.4" opacity="0.51"/><rect x="340" y="140" width="32" height="29" fill="none" stroke="#22272e" stroke-width="1.4" opacity="0.64"/><rect x="380" y="140" width="30" height="29" fill="none" stroke="#22272e" stroke-width="1.4" opacity="0.45"/><rect x="460" y="140" width="34" height="34" fill="none" stroke="#22272e" stroke-width="1.4" opacity="0.55"/><rect x="500" y="140" width="31" height="30" fill="none" stroke="#22272e" stroke-width="1.4" opacity="0.45"/><rect x="540" y="140" width="27" height="26" fill="none" stroke="#22272e" stroke-width="1.4" opacity="0.78"/><rect x="580" y="140" width="27" height="28" fill="none" stroke="#22272e" stroke-width="1.4" opacity="0.71"/><rect x="620" y="140" width="30" height="26" fill="none" stroke="#22272e" stroke-width="1.4" opacity="0.44"/><rect x="660" y="140" width="25" height="26" fill="none" stroke="#22272e" stroke-width="1.4" opacity="0.73"/><rect x="700" y="140" width="24" height="28" fill="none" stroke="#22272e" stroke-width="1.4" opacity="0.36"/><rect x="60" y="180" width="28" height="34" fill="none" stroke="#22272e" stroke-width="1.4" opacity="0.43"/><rect x="140" y="180" width="36" height="31" fill="none" stroke="#22272e" stroke-width="1.4" opacity="0.32"/><rect x="180" y="180" width="26" height="27" fill="none" stroke="#22272e" stroke-width="1.4" opacity="0.37"/><rect x="260" y="180" width="32" height="28" fill="none" stroke="#22272e" stroke-width="1.4" opacity="0.64"/><rect x="300" y="180" width="23" height="35" fill="none" stroke="#22272e" stroke-width="1.4" opacity="0.63"/><rect x="340" y="180" width="36" height="35" fill="none" stroke="#22272e" stroke-width="1.4" opacity="0.39"/><rect x="380" y="180" width="31" height="24" fill="none" stroke="#22272e" stroke-width="1.4" opacity="0.67"/><rect x="420" y="180" width="32" height="30" fill="none" stroke="#22272e" stroke-width="1.4" opacity="0.69"/><rect x="500" y="180" width="30" height="27" fill="none" stroke="#22272e" stroke-width="1.4" opacity="0.37"/><rect x="540" y="180" width="34" height="25" fill="none" stroke="#22272e" stroke-width="1.4" opacity="0.51"/><rect x="580" y="180" width="31" height="29" fill="none" stroke="#22272e" stroke-width="1.4" opacity="0.73"/><rect x="620" y="180" width="27" height="31" fill="none" stroke="#22272e" stroke-width="1.4" opacity="0.67"/><rect x="700" y="180" width="34" height="36" fill="none" stroke="#22272e" stroke-width="1.4" opacity="0.79"/><rect x="60" y="220" width="27" height="33" fill="none" stroke="#22272e" stroke-width="1.4" opacity="0.72"/><rect x="100" y="220" width="28" height="32" fill="none" stroke="#22272e" stroke-width="1.4" opacity="0.68"/><rect x="140" y="220" width="25" height="28" fill="none" stroke="#22272e" stroke-width="1.4" opacity="0.33"/><rect x="180" y="220" width="28" height="34" fill="none" stroke="#22272e" stroke-width="1.4" opacity="0.59"/><rect x="220" y="220" width="25" height="26" fill="none" stroke="#22272e" stroke-width="1.4" opacity="0.64"/><rect x="260" y="220" width="24" height="34" fill="none" stroke="#22272e" stroke-width="1.4" opacity="0.59"/><rect x="340" y="220" width="31" height="28" fill="none" stroke="#22272e" stroke-width="1.4" opacity="0.60"/><rect x="460" y="220" width="28" height="23" fill="none" stroke="#22272e" stroke-width="1.4" opacity="0.72"/><rect x="500" y="220" width="27" height="23" fill="none" stroke="#22272e" stroke-width="1.4" opacity="0.32"/><rect x="540" y="220" width="36" height="32" fill="none" stroke="#22272e" stroke-width="1.4" opacity="0.65"/><rect x="580" y="220" width="26" height="24" fill="none" stroke="#22272e" stroke-width="1.4" opacity="0.60"/><rect x="620" y="220" width="30" height="29" fill="none" stroke="#22272e" stroke-width="1.4" opacity="0.57"/><rect x="660" y="220" width="23" height="29" fill="none" stroke="#22272e" stroke-width="1.4" opacity="0.37"/><rect x="700" y="220" width="26" height="31" fill="none" stroke="#22272e" stroke-width="1.4" opacity="0.68"/><rect x="60" y="260" width="29" height="25" fill="none" stroke="#22272e" stroke-width="1.4" opacity="0.47"/><rect x="140" y="260" width="26" height="29" fill="none" stroke="#22272e" stroke-width="1.4" opacity="0.57"/><rect x="180" y="260" width="26" height="35" fill="none" stroke="#22272e" stroke-width="1.4" opacity="0.31"/><rect x="220" y="260" width="30" height="35" fill="none" stroke="#22272e" stroke-width="1.4" opacity="0.38"/><rect x="260" y="260" width="35" height="31" fill="none" stroke="#22272e" stroke-width="1.4" opacity="0.36"/><rect x="380" y="260" width="34" height="23" fill="none" stroke="#22272e" stroke-width="1.4" opacity="0.34"/><rect x="420" y="260" width="32" height="35" fill="none" stroke="#22272e" stroke-width="1.4" opacity="0.62"/><rect x="460" y="260" width="26" height="30" fill="none" stroke="#22272e" stroke-width="1.4" opacity="0.80"/><rect x="500" y="260" width="34" height="25" fill="none" stroke="#22272e" stroke-width="1.4" opacity="0.67"/><rect x="540" y="260" width="23" height="33" fill="none" stroke="#22272e" stroke-width="1.4" opacity="0.39"/><rect x="580" y="260" width="23" height="31" fill="none" stroke="#22272e" stroke-width="1.4" opacity="0.37"/><rect x="660" y="260" width="33" height="33" fill="none" stroke="#22272e" stroke-width="1.4" opacity="0.58"/><rect x="700" y="260" width="33" height="31" fill="none" stroke="#22272e" stroke-width="1.4" opacity="0.37"/><rect x="60" y="300" width="27" height="30" fill="none" stroke="#22272e" stroke-width="1.4" opacity="0.56"/><rect x="140" y="300" width="34" height="23" fill="none" stroke="#22272e" stroke-width="1.4" opacity="0.46"/><rect x="180" y="300" width="31" height="34" fill="none" stroke="#22272e" stroke-width="1.4" opacity="0.40"/><rect x="220" y="300" width="33" height="24" fill="none" stroke="#22272e" stroke-width="1.4" opacity="0.37"/><rect x="260" y="300" width="36" height="31" fill="none" stroke="#22272e" stroke-width="1.4" opacity="0.51"/><rect x="300" y="300" width="33" height="29" fill="none" stroke="#22272e" stroke-width="1.4" opacity="0.57"/><rect x="340" y="300" width="35" height="33" fill="none" stroke="#22272e" stroke-width="1.4" opacity="0.72"/><rect x="380" y="300" width="30" height="34" fill="none" stroke="#22272e" stroke-width="1.4" opacity="0.66"/><rect x="500" y="300" width="29" height="27" fill="none" stroke="#22272e" stroke-width="1.4" opacity="0.40"/><rect x="540" y="300" width="36" height="33" fill="none" stroke="#22272e" stroke-width="1.4" opacity="0.35"/><rect x="580" y="300" width="27" height="34" fill="none" stroke="#22272e" stroke-width="1.4" opacity="0.53"/><rect x="620" y="300" width="30" height="25" fill="none" stroke="#22272e" stroke-width="1.4" opacity="0.32"/><rect x="660" y="300" width="36" height="33" fill="none" stroke="#22272e" stroke-width="1.4" opacity="0.67"/><rect x="700" y="300" width="30" height="31" fill="none" stroke="#22272e" stroke-width="1.4" opacity="0.68"/><rect x="60" y="340" width="23" height="35" fill="none" stroke="#22272e" stroke-width="1.4" opacity="0.43"/><rect x="100" y="340" width="28" height="33" fill="none" stroke="#22272e" stroke-width="1.4" opacity="0.47"/><rect x="140" y="340" width="28" height="29" fill="none" stroke="#22272e" stroke-width="1.4" opacity="0.70"/><rect x="180" y="340" width="31" height="27" fill="none" stroke="#22272e" stroke-width="1.4" opacity="0.67"/><rect x="220" y="340" width="34" height="35" fill="none" stroke="#22272e" stroke-width="1.4" opacity="0.31"/><rect x="300" y="340" width="32" height="23" fill="none" stroke="#22272e" stroke-width="1.4" opacity="0.67"/><rect x="340" y="340" width="31" height="35" fill="none" stroke="#22272e" stroke-width="1.4" opacity="0.77"/><rect x="380" y="340" width="35" height="24" fill="none" stroke="#22272e" stroke-width="1.4" opacity="0.45"/><rect x="420" y="340" width="29" height="35" fill="none" stroke="#22272e" stroke-width="1.4" opacity="0.62"/><rect x="460" y="340" width="31" height="35" fill="none" stroke="#22272e" stroke-width="1.4" opacity="0.50"/><rect x="500" y="340" width="30" height="28" fill="none" stroke="#22272e" stroke-width="1.4" opacity="0.47"/><rect x="540" y="340" width="22" height="27" fill="none" stroke="#22272e" stroke-width="1.4" opacity="0.45"/><rect x="580" y="340" width="29" height="27" fill="none" stroke="#22272e" stroke-width="1.4" opacity="0.76"/><rect x="620" y="340" width="31" height="34" fill="none" stroke="#22272e" stroke-width="1.4" opacity="0.44"/><rect x="660" y="340" width="31" height="25" fill="none" stroke="#22272e" stroke-width="1.4" opacity="0.79"/><rect x="700" y="340" width="34" height="25" fill="none" stroke="#22272e" stroke-width="1.4" opacity="0.35"/><rect x="60" y="380" width="32" height="26" fill="none" stroke="#22272e" stroke-width="1.4" opacity="0.76"/><rect x="140" y="380" width="36" height="36" fill="none" stroke="#22272e" stroke-width="1.4" opacity="0.37"/><rect x="180" y="380" width="32" height="32" fill="none" stroke="#22272e" stroke-width="1.4" opacity="0.47"/><rect x="220" y="380" width="30" height="34" fill="none" stroke="#22272e" stroke-width="1.4" opacity="0.33"/><rect x="260" y="380" width="26" height="33" fill="none" stroke="#22272e" stroke-width="1.4" opacity="0.36"/><rect x="300" y="380" width="24" height="24" fill="none" stroke="#22272e" stroke-width="1.4" opacity="0.52"/><rect x="380" y="380" width="23" height="31" fill="none" stroke="#22272e" stroke-width="1.4" opacity="0.47"/><rect x="420" y="380" width="32" height="28" fill="none" stroke="#22272e" stroke-width="1.4" opacity="0.67"/><rect x="460" y="380" width="34" height="33" fill="none" stroke="#22272e" stroke-width="1.4" opacity="0.75"/><rect x="500" y="380" width="26" height="29" fill="none" stroke="#22272e" stroke-width="1.4" opacity="0.69"/><rect x="540" y="380" width="32" height="34" fill="none" stroke="#22272e" stroke-width="1.4" opacity="0.71"/><rect x="580" y="380" width="31" height="23" fill="none" stroke="#22272e" stroke-width="1.4" opacity="0.54"/><rect x="620" y="380" width="35" height="34" fill="none" stroke="#22272e" stroke-width="1.4" opacity="0.52"/><rect x="660" y="380" width="34" height="31" fill="none" stroke="#22272e" stroke-width="1.4" opacity="0.40"/><rect x="700" y="380" width="34" height="30" fill="none" stroke="#22272e" stroke-width="1.4" opacity="0.35"/><rect x="100" y="420" width="33" height="33" fill="none" stroke="#22272e" stroke-width="1.4" opacity="0.43"/><rect x="140" y="420" width="24" height="31" fill="none" stroke="#22272e" stroke-width="1.4" opacity="0.52"/><rect x="180" y="420" width="24" height="25" fill="none" stroke="#22272e" stroke-width="1.4" opacity="0.49"/><rect x="220" y="420" width="28" height="35" fill="none" stroke="#22272e" stroke-width="1.4" opacity="0.73"/><rect x="260" y="420" width="34" height="25" fill="none" stroke="#22272e" stroke-width="1.4" opacity="0.42"/><rect x="300" y="420" width="26" height="25" fill="none" stroke="#22272e" stroke-width="1.4" opacity="0.34"/><rect x="340" y="420" width="25" height="35" fill="none" stroke="#22272e" stroke-width="1.4" opacity="0.32"/><rect x="380" y="420" width="25" height="32" fill="none" stroke="#22272e" stroke-width="1.4" opacity="0.30"/><rect x="420" y="420" width="32" height="22" fill="none" stroke="#22272e" stroke-width="1.4" opacity="0.51"/><rect x="460" y="420" width="29" height="31" fill="none" stroke="#22272e" stroke-width="1.4" opacity="0.34"/><rect x="540" y="420" width="33" height="24" fill="none" stroke="#22272e" stroke-width="1.4" opacity="0.35"/><rect x="580" y="420" width="23" height="25" fill="none" stroke="#22272e" stroke-width="1.4" opacity="0.37"/><rect x="620" y="420" width="34" height="29" fill="none" stroke="#22272e" stroke-width="1.4" opacity="0.55"/><rect x="660" y="420" width="33" height="23" fill="none" stroke="#22272e" stroke-width="1.4" opacity="0.32"/><rect x="700" y="420" width="22" height="29" fill="none" stroke="#22272e" stroke-width="1.4" opacity="0.61"/><circle cx="320" cy="250" r="40" fill="none" stroke="#b45309" stroke-width="2.4" opacity="0.85"/><circle cx="320" cy="250" r="80" fill="none" stroke="#b45309" stroke-width="2.4" opacity="0.71"/><circle cx="320" cy="250" r="120" fill="none" stroke="#b45309" stroke-width="2.4" opacity="0.57"/><circle cx="320" cy="250" r="160" fill="none" stroke="#b45309" stroke-width="2.4" opacity="0.43"/><circle cx="560" cy="190" r="30" fill="none" stroke="#0e7570" stroke-width="2.4" opacity="0.85"/><circle cx="560" cy="190" r="60" fill="none" stroke="#0e7570" stroke-width="2.4" opacity="0.71"/><circle cx="560" cy="190" r="90" fill="none" stroke="#0e7570" stroke-width="2.4" opacity="0.57"/></svg>