<svg xmlns="http://www.w3.org/2000/svg" viewBox="0 0 800 500" role="img" aria-label="Abstract contour motif with a recovery curve"><rect width="800" height="500" fill="#f6f4ee"/><polyline points="0,68 40,42 80,65 120,75 160,75 200,61 240,66 280,54 320,61 360,43 400,68 440,64 480,50 520,55 560,70 600,58 640,80 680,81 720,75 760,42 800,41" fill="none" stroke="#7fbdb9" stroke-width="1.6" opacity="0.39"/><polyline points="0,96 40,111 80,117 120,105 160,108 200,105 240,82 280,103 320,90 360,99 400,81 440,109 480,120 520,83 560,106 600,81 640,96 680,87 720,118 760,112 800,120" fill="none" stroke="#7fbdb9" stroke-width="1.6" opacity="0.36"/><polyline points="0,154 40,153 80,145 120,163 160,150 200,135 240,154 280,144 320,132 360,150 400,125 440,142 480,147 520,123 560,151 600,126 640,151 680,137 720,124 760,166 800,125" fill="none" stroke="#7fbdb9" stroke-width="1.6" opacity="0.33"/><polyline points="0,187 40,175 80,188 120,186 160,190 200,189 240,178 280,174 320,195 360,184 400,188 440,205 480,165 520,177 560,189 600,167 640,198 680,182 720,179 760,173 800,207" fill="none" stroke="#7fbdb9" stroke-width="1.6" opacity="0.27"/><polyline points="0,243 40,238 80,246 120,238 160,222 200,231 240,247 280,209 320,244 360,237 400,216 440,249 480,220 520,207 560,219 600,230 640,208 680,233 720,226 760,222 800,240" fill="none" stroke="#7fbdb9" stroke-width="1.6" opacity="0.56"/><polyline points="0,292 40,287 80,287 120,290 160,287 200,271 240,252 280,269 320,276 360,292 400,278 440,274 480,253 520,278 560,251 600,255 640,251 680,281 720,291 760,275 800,253" fill="none" stroke="#7fbdb9" stroke-width="1.6" opacity="0.62"/><polyline points="0,299 40,323 80,321 120,333 160,299 200,302 240,305 280,295 320,333 360,319 400,296 440,312 480,296 520,334 560,307 600,291 640,324 680,306 720,320 760,326 800,295" fill="none" stroke="#7fbdb9" stroke-width="1.6" opacity="0.52"/><polyline points="0,375 40,344 80,345 120,363 160,336 200,370 240,369 280,375 320,370 360,359 400,354 440,357 480,362 520,377 560,340 600,355 640,353 680,344 720,341 760,368 800,359" fill="none" stroke="#7fbdb9" stroke-width="1.6" opacity="0.59"/><polyline points="0,387 40,397 80,383 120,382 160,382 200,404 240,413 280,401 320,410 360,379 400,399 440,382 480,399 520,387 560,387 600,416 640,400 680,386 720,397 760,388 800,411" fill="none" stroke="#7fbdb9" stroke-width="1.6" opacity="0.45"/><path d="M 80 380 L 260 380 L 310 300 L 360 430 L 430 350 L 560 330 L 720 180" fill="none" stroke="#b45309" stroke-width="3.5" stroke-linejoin="round"/><circle cx="720" cy="180" r="7" fill="#b45309"/></svg>